<?xml version="1.0" encoding="UTF-8" standalone="no"?>
<!-- Created with Inkscape (http://www.inkscape.org/) -->

<svg
   xmlns:dc="http://purl.org/dc/elements/1.1/"
   xmlns:cc="http://creativecommons.org/ns#"
   xmlns:rdf="http://www.w3.org/1999/02/22-rdf-syntax-ns#"
   xmlns:svg="http://www.w3.org/2000/svg"
   xmlns="http://www.w3.org/2000/svg"
   xmlns:sodipodi="http://sodipodi.sourceforge.net/DTD/sodipodi-0.dtd"
   xmlns:inkscape="http://www.inkscape.org/namespaces/inkscape"
   id="svg4823"
   version="1.1"
   inkscape:version="0.91 r13725"
   xml:space="preserve"
   width="1000"
   height="1000"
   viewBox="0 0 1000 1000"
   sodipodi:docname="Faces.ai.svg"
   inkscape:export-filename="/Users/ricco/Downloads/Abstract-head-icons/path5125.png"
   inkscape:export-xdpi="22.772276"
   inkscape:export-ydpi="22.772276"><metadata
     id="metadata4829"><rdf:RDF><cc:Work
         rdf:about=""><dc:format>image/svg+xml</dc:format><dc:type
           rdf:resource="http://purl.org/dc/dcmitype/StillImage" /><dc:title></dc:title></cc:Work></rdf:RDF></metadata><defs
     id="defs4827"><clipPath
       clipPathUnits="userSpaceOnUse"
       id="clipPath4839"><path
         d="M 0,800 800,800 800,0 0,0 0,800 Z"
         id="path4841"
         inkscape:connector-curvature="0" /></clipPath><clipPath
       clipPathUnits="userSpaceOnUse"
       id="clipPath4971"><path
         d="M 0,800 800,800 800,0 0,0 0,800 Z"
         id="path4973"
         inkscape:connector-curvature="0" /></clipPath></defs><sodipodi:namedview
     pagecolor="#ffffff"
     bordercolor="#666666"
     borderopacity="1"
     objecttolerance="10"
     gridtolerance="10"
     guidetolerance="10"
     inkscape:pageopacity="0"
     inkscape:pageshadow="2"
     inkscape:window-width="1920"
     inkscape:window-height="961"
     id="namedview4825"
     showgrid="false"
     inkscape:zoom="0.795"
     inkscape:cx="500"
     inkscape:cy="570.80122"
     inkscape:window-x="0"
     inkscape:window-y="0"
     inkscape:window-maximized="1"
     inkscape:current-layer="layer18" /><g
     id="g4831"
     inkscape:groupmode="layer"
     inkscape:label="Faces"
     transform="matrix(1.25,0,0,-1.25,0,1000)"
     style="display:none"><path
       d="M 0,0 800,0 800,800 0,800 0,0 Z"
       style="fill:#ffffff;fill-opacity:1;fill-rule:nonzero;stroke:none"
       id="path4833"
       inkscape:connector-curvature="0" /><g
       id="g4835"><g
         id="g4837"
         clip-path="url(#clipPath4839)"><g
           id="g4843"
           transform="translate(280.9233,29.5215)"><path
             d="m 0,0 c 0,-0.703 0.109,-1.301 0.328,-1.795 0.218,-0.494 0.517,-0.865 0.897,-1.115 0.38,-0.25 0.795,-0.377 1.244,-0.377 0.456,0 0.872,0.119 1.25,0.357 0.376,0.237 0.677,0.602 0.902,1.092 0.225,0.49 0.337,1.106 0.337,1.838 0,0.691 -0.112,1.285 -0.337,1.783 C 4.396,2.279 4.092,2.658 3.709,2.922 3.326,3.184 2.906,3.314 2.451,3.314 1.976,3.314 1.552,3.18 1.178,2.912 0.804,2.643 0.515,2.258 0.309,1.754 0.103,1.25 0,0.666 0,0 m 5.101,-3.809 0,0.258 C 4.752,-3.949 4.409,-4.275 4.07,-4.523 3.731,-4.775 3.364,-4.965 2.968,-5.094 2.572,-5.227 2.141,-5.289 1.672,-5.289 c -0.621,0 -1.196,0.131 -1.725,0.393 -0.528,0.263 -0.986,0.638 -1.371,1.126 -0.388,0.487 -0.68,1.059 -0.879,1.719 -0.199,0.658 -0.3,1.371 -0.3,2.137 0,1.621 0.396,2.885 1.188,3.791 C -0.624,4.781 0.418,5.234 1.71,5.234 2.457,5.234 3.087,5.105 3.6,4.85 4.113,4.594 4.613,4.197 5.101,3.668 l 0,3.826 c 0,0.533 0.105,0.934 0.318,1.207 C 5.63,8.973 5.933,9.109 6.326,9.109 6.718,9.109 7.02,8.984 7.232,8.734 7.445,8.482 7.551,8.115 7.551,7.627 l 0,-11.436 c 0,-0.494 -0.114,-0.863 -0.342,-1.111 -0.228,-0.246 -0.522,-0.369 -0.883,-0.369 -0.355,0 -0.648,0.127 -0.879,0.383 -0.231,0.258 -0.346,0.623 -0.346,1.097"
             style="fill:#000000;fill-opacity:1;fill-rule:nonzero;stroke:none"
             id="path4845"
             inkscape:connector-curvature="0" /></g><g
           id="g4847"
           transform="translate(292.3862,30.3379)"><path
             d="M 0,0 4.702,0 C 4.639,0.887 4.398,1.551 3.984,1.99 3.569,2.432 3.024,2.65 2.346,2.65 1.7,2.65 1.169,2.428 0.755,1.982 0.34,1.535 0.089,0.875 0,0 m 5.071,-1.473 -5.071,0 c 0.006,-0.588 0.125,-1.107 0.356,-1.556 0.231,-0.45 0.539,-0.789 0.921,-1.016 0.384,-0.228 0.806,-0.342 1.268,-0.342 0.31,0 0.594,0.035 0.851,0.108 0.256,0.074 0.504,0.187 0.746,0.343 0.24,0.155 0.462,0.321 0.664,0.498 0.202,0.178 0.465,0.42 0.788,0.723 0.133,0.113 0.323,0.172 0.571,0.172 0.266,0 0.481,-0.074 0.645,-0.221 0.164,-0.146 0.248,-0.349 0.248,-0.617 0,-0.234 -0.093,-0.506 -0.276,-0.82 C 6.597,-4.516 6.32,-4.816 5.951,-5.104 5.579,-5.393 5.115,-5.631 4.554,-5.82 3.994,-6.012 3.35,-6.105 2.621,-6.105 c -1.664,0 -2.96,0.474 -3.884,1.423 -0.925,0.95 -1.386,2.239 -1.386,3.866 0,0.767 0.113,1.478 0.341,2.132 0.228,0.657 0.561,1.217 0.997,1.686 0.437,0.469 0.975,0.828 1.615,1.078 0.639,0.25 1.349,0.375 2.128,0.375 1.012,0 1.881,-0.213 2.606,-0.641 C 5.764,3.387 6.307,2.834 6.667,2.158 7.027,1.48 7.209,0.789 7.209,0.088 7.209,-0.566 7.022,-0.988 6.649,-1.182 6.276,-1.375 5.75,-1.473 5.071,-1.473"
             style="fill:#000000;fill-opacity:1;fill-rule:nonzero;stroke:none"
             id="path4849"
             inkscape:connector-curvature="0" /></g><g
           id="g4851"
           transform="translate(309.2725,27.623)"><path
             d="m 0,0 c 0,-0.715 -0.173,-1.328 -0.522,-1.838 -0.348,-0.51 -0.863,-0.896 -1.544,-1.16 -0.68,-0.262 -1.508,-0.393 -2.483,-0.393 -0.931,0 -1.729,0.143 -2.394,0.428 -0.664,0.283 -1.156,0.641 -1.472,1.067 -0.316,0.429 -0.475,0.857 -0.475,1.289 0,0.285 0.101,0.527 0.305,0.73 0.202,0.201 0.459,0.303 0.769,0.303 0.272,0 0.48,-0.067 0.626,-0.199 0.146,-0.133 0.286,-0.321 0.418,-0.559 0.266,-0.465 0.585,-0.807 0.955,-1.037 0.37,-0.227 0.875,-0.342 1.515,-0.342 0.519,0 0.945,0.117 1.278,0.348 0.332,0.232 0.498,0.496 0.498,0.793 0,0.457 -0.172,0.787 -0.518,0.996 -0.345,0.209 -0.914,0.41 -1.705,0.599 -0.893,0.221 -1.619,0.455 -2.18,0.7 -0.56,0.242 -1.008,0.564 -1.343,0.963 -0.336,0.398 -0.504,0.89 -0.504,1.472 0,0.518 0.155,1.01 0.465,1.473 0.311,0.461 0.769,0.83 1.374,1.105 0.604,0.276 1.333,0.414 2.188,0.414 0.671,0 1.275,-0.07 1.809,-0.211 0.536,-0.136 0.983,-0.326 1.34,-0.56 0.358,-0.233 0.63,-0.492 0.816,-0.777 0.187,-0.286 0.28,-0.563 0.28,-0.836 0,-0.297 -0.1,-0.541 -0.298,-0.733 C -1.001,3.848 -1.285,3.75 -1.653,3.75 c -0.266,0 -0.492,0.076 -0.679,0.23 -0.186,0.151 -0.4,0.379 -0.641,0.682 C -3.169,4.916 -3.399,5.119 -3.666,5.271 -3.932,5.424 -4.292,5.498 -4.749,5.498 -5.218,5.498 -5.606,5.4 -5.917,5.199 -6.227,5 -6.382,4.752 -6.382,4.455 c 0,-0.273 0.113,-0.496 0.341,-0.67 0.229,-0.176 0.535,-0.32 0.922,-0.433 0.387,-0.114 0.917,-0.252 1.596,-0.416 0.803,-0.198 1.46,-0.432 1.97,-0.704 0.51,-0.271 0.896,-0.593 1.16,-0.964 C -0.131,0.896 0,0.475 0,0"
             style="fill:#000000;fill-opacity:1;fill-rule:nonzero;stroke:none"
             id="path4853"
             inkscape:connector-curvature="0" /></g><g
           id="g4855"
           transform="translate(313.2041,33.3027)"><path
             d="m 0,0 0,-7.494 c 0,-0.52 -0.124,-0.912 -0.371,-1.178 -0.247,-0.266 -0.56,-0.398 -0.94,-0.398 -0.38,0 -0.689,0.134 -0.926,0.408 -0.238,0.271 -0.356,0.662 -0.356,1.168 l 0,7.418 c 0,0.512 0.118,0.898 0.356,1.158 0.237,0.26 0.546,0.391 0.926,0.391 0.38,0 0.693,-0.131 0.94,-0.391 C -0.124,0.822 0,0.461 0,0 m -1.283,2.678 c -0.361,0 -0.669,0.111 -0.925,0.332 -0.257,0.22 -0.385,0.535 -0.385,0.941 0,0.367 0.131,0.668 0.394,0.906 0.262,0.239 0.569,0.358 0.916,0.358 0.336,0 0.634,-0.108 0.893,-0.324 C -0.13,4.676 0,4.363 0,3.951 0,3.551 -0.127,3.24 -0.381,3.016 -0.634,2.791 -0.935,2.678 -1.283,2.678"
             style="fill:#000000;fill-opacity:1;fill-rule:nonzero;stroke:none"
             id="path4857"
             inkscape:connector-curvature="0" /></g><g
           id="g4859"
           transform="translate(317.0498,29.5879)"><path
             d="m 0,0 c 0,-1.051 0.229,-1.846 0.688,-2.383 0.459,-0.539 1.053,-0.808 1.781,-0.808 0.43,0 0.837,0.117 1.22,0.347 0.384,0.231 0.695,0.58 0.936,1.045 0.24,0.465 0.361,1.029 0.361,1.695 0,1.057 -0.232,1.881 -0.698,2.469 C 3.822,2.953 3.21,3.248 2.45,3.248 1.708,3.248 1.115,2.967 0.669,2.402 0.223,1.84 0,1.039 0,0 m 7.513,3.287 0,-7.531 C 7.513,-5.105 7.42,-5.848 7.236,-6.469 7.054,-7.088 6.759,-7.602 6.354,-8.006 5.948,-8.41 5.418,-8.713 4.763,-8.908 4.108,-9.105 3.292,-9.203 2.317,-9.203 c -0.893,0 -1.691,0.125 -2.394,0.375 -0.702,0.252 -1.243,0.574 -1.624,0.969 -0.379,0.396 -0.57,0.802 -0.57,1.22 0,0.317 0.108,0.577 0.324,0.774 0.215,0.201 0.475,0.301 0.778,0.301 0.38,0 0.712,-0.168 0.998,-0.504 0.138,-0.17 0.282,-0.344 0.431,-0.518 0.149,-0.176 0.315,-0.324 0.494,-0.447 0.181,-0.123 0.398,-0.215 0.651,-0.276 0.253,-0.058 0.545,-0.089 0.874,-0.089 0.671,0 1.192,0.093 1.563,0.281 0.37,0.185 0.63,0.447 0.779,0.783 0.149,0.334 0.235,0.693 0.261,1.078 0.025,0.383 0.044,0.998 0.056,1.848 C 4.539,-3.967 4.08,-4.391 3.556,-4.682 3.034,-4.973 2.412,-5.119 1.69,-5.119 c -0.867,0 -1.625,0.223 -2.275,0.666 -0.648,0.443 -1.147,1.062 -1.495,1.861 -0.349,0.799 -0.522,1.719 -0.522,2.764 0,0.777 0.105,1.482 0.317,2.107 0.213,0.629 0.515,1.157 0.908,1.588 0.392,0.43 0.845,0.754 1.357,0.973 0.513,0.219 1.077,0.328 1.691,0.328 0.734,0 1.371,-0.143 1.91,-0.422 0.537,-0.283 1.038,-0.725 1.5,-1.326 l 0,0.351 c 0,0.45 0.11,0.797 0.332,1.045 0.222,0.246 0.507,0.371 0.856,0.371 0.5,0 0.832,-0.164 0.996,-0.49 C 7.43,4.371 7.513,3.9 7.513,3.287"
             style="fill:#000000;fill-opacity:1;fill-rule:nonzero;stroke:none"
             id="path4861"
             inkscape:connector-curvature="0" /></g><g
           id="g4863"
           transform="translate(328.6836,33.3398)"><path
             d="M 0,0 0,-0.312 C 0.455,0.289 0.954,0.73 1.496,1.012 2.037,1.293 2.659,1.436 3.362,1.436 4.046,1.436 4.657,1.285 5.195,0.988 5.733,0.689 6.136,0.27 6.401,-0.273 6.573,-0.592 6.683,-0.934 6.733,-1.301 6.784,-1.668 6.811,-2.137 6.811,-2.707 l 0,-4.824 c 0,-0.52 -0.12,-0.912 -0.357,-1.178 -0.238,-0.266 -0.546,-0.398 -0.926,-0.398 -0.387,0 -0.7,0.134 -0.941,0.408 -0.241,0.271 -0.36,0.662 -0.36,1.168 l 0,4.322 c 0,0.854 -0.12,1.508 -0.357,1.961 -0.238,0.451 -0.71,0.68 -1.42,0.68 -0.462,0 -0.883,-0.139 -1.263,-0.414 C 0.807,-1.258 0.528,-1.637 0.351,-2.117 0.225,-2.504 0.161,-3.225 0.161,-4.283 l 0,-3.248 c 0,-0.526 -0.122,-0.92 -0.365,-1.184 -0.244,-0.262 -0.559,-0.392 -0.945,-0.392 -0.374,0 -0.681,0.134 -0.922,0.408 -0.24,0.271 -0.361,0.662 -0.361,1.168 l 0,7.494 c 0,0.494 0.108,0.863 0.323,1.107 0.215,0.242 0.51,0.366 0.883,0.366 0.228,0 0.434,-0.055 0.619,-0.163 0.182,-0.109 0.33,-0.269 0.441,-0.484 C -0.055,0.574 0,0.311 0,0"
             style="fill:#000000;fill-opacity:1;fill-rule:nonzero;stroke:none"
             id="path4865"
             inkscape:connector-curvature="0" /></g><g
           id="g4867"
           transform="translate(339.3867,30.3379)"><path
             d="M 0,0 4.701,0 C 4.638,0.887 4.399,1.551 3.984,1.99 3.569,2.432 3.023,2.65 2.346,2.65 1.7,2.65 1.169,2.428 0.754,1.982 0.339,1.535 0.089,0.875 0,0 m 5.071,-1.473 -5.071,0 c 0.007,-0.588 0.125,-1.107 0.356,-1.556 0.231,-0.45 0.538,-0.789 0.922,-1.016 0.382,-0.228 0.805,-0.342 1.267,-0.342 0.31,0 0.594,0.035 0.851,0.108 0.255,0.074 0.504,0.187 0.746,0.343 0.239,0.155 0.461,0.321 0.665,0.498 0.201,0.178 0.464,0.42 0.787,0.723 0.133,0.113 0.323,0.172 0.57,0.172 0.266,0 0.482,-0.074 0.646,-0.221 0.165,-0.146 0.247,-0.349 0.247,-0.617 0,-0.234 -0.092,-0.506 -0.276,-0.82 C 6.597,-4.516 6.32,-4.816 5.95,-5.104 5.579,-5.393 5.115,-5.631 4.554,-5.82 3.994,-6.012 3.349,-6.105 2.621,-6.105 c -1.665,0 -2.96,0.474 -3.885,1.423 -0.924,0.95 -1.386,2.239 -1.386,3.866 0,0.767 0.114,1.478 0.341,2.132 0.228,0.657 0.561,1.217 0.998,1.686 0.437,0.469 0.976,0.828 1.615,1.078 0.639,0.25 1.349,0.375 2.128,0.375 1.012,0 1.88,-0.213 2.606,-0.641 C 5.763,3.387 6.306,2.834 6.667,2.158 7.028,1.48 7.209,0.789 7.209,0.088 7.209,-0.566 7.022,-0.988 6.648,-1.182 6.275,-1.375 5.75,-1.473 5.071,-1.473"
             style="fill:#000000;fill-opacity:1;fill-rule:nonzero;stroke:none"
             id="path4869"
             inkscape:connector-curvature="0" /></g><g
           id="g4871"
           transform="translate(349.9282,29.5215)"><path
             d="M 0,0 C 0,-0.703 0.108,-1.301 0.327,-1.795 0.545,-2.289 0.845,-2.66 1.226,-2.91 1.605,-3.16 2.02,-3.287 2.469,-3.287 c 0.456,0 0.873,0.119 1.249,0.357 0.377,0.237 0.678,0.602 0.902,1.092 C 4.845,-1.348 4.958,-0.732 4.958,0 4.958,0.691 4.845,1.285 4.62,1.783 4.396,2.279 4.092,2.658 3.708,2.922 3.325,3.184 2.906,3.314 2.45,3.314 1.976,3.314 1.551,3.18 1.177,2.912 0.804,2.643 0.514,2.258 0.308,1.754 0.102,1.25 0,0.666 0,0 m 5.1,-3.809 0,0.258 C 4.751,-3.949 4.408,-4.275 4.069,-4.523 3.73,-4.775 3.364,-4.965 2.968,-5.094 2.573,-5.227 2.14,-5.289 1.672,-5.289 c -0.622,0 -1.196,0.131 -1.724,0.393 -0.529,0.263 -0.987,0.638 -1.373,1.126 -0.387,0.487 -0.679,1.059 -0.878,1.719 -0.2,0.658 -0.3,1.371 -0.3,2.137 0,1.621 0.396,2.885 1.187,3.791 0.792,0.904 1.834,1.357 3.125,1.357 C 2.457,5.234 3.087,5.105 3.6,4.85 4.112,4.594 4.613,4.197 5.1,3.668 l 0,3.826 C 5.1,8.027 5.206,8.428 5.418,8.701 5.63,8.973 5.933,9.109 6.326,9.109 6.718,9.109 7.02,8.984 7.232,8.734 7.444,8.482 7.551,8.115 7.551,7.627 l 0,-11.436 C 7.551,-4.303 7.437,-4.672 7.209,-4.92 6.981,-5.166 6.687,-5.289 6.326,-5.289 5.971,-5.289 5.678,-5.162 5.447,-4.906 5.215,-4.648 5.1,-4.283 5.1,-3.809"
             style="fill:#000000;fill-opacity:1;fill-rule:nonzero;stroke:none"
             id="path4873"
             inkscape:connector-curvature="0" /></g><g
           id="g4875"
           transform="translate(365.7495,29.4453)"><path
             d="m 0,0 c 0,-1.031 0.236,-1.824 0.708,-2.377 0.471,-0.555 1.09,-0.834 1.856,-0.834 0.652,0 1.215,0.283 1.686,0.852 0.472,0.566 0.708,1.379 0.708,2.435 C 4.958,0.76 4.86,1.35 4.664,1.844 4.467,2.338 4.189,2.719 3.828,2.988 3.467,3.256 3.045,3.391 2.564,3.391 2.071,3.391 1.63,3.256 1.244,2.988 0.858,2.719 0.554,2.33 0.332,1.82 0.111,1.311 0,0.703 0,0 m -0.124,7.703 0,-3.959 c 0.488,0.506 0.985,0.895 1.492,1.162 0.506,0.27 1.133,0.405 1.881,0.405 0.861,0 1.615,-0.206 2.265,-0.612 0.648,-0.41 1.152,-1.002 1.51,-1.777 0.357,-0.776 0.537,-1.695 0.537,-2.76 0,-0.785 -0.1,-1.504 -0.299,-2.16 C 7.062,-2.654 6.772,-3.223 6.393,-3.703 6.012,-4.184 5.552,-4.557 5.011,-4.82 4.469,-5.082 3.872,-5.213 3.22,-5.213 c -0.399,0 -0.775,0.047 -1.125,0.143 -0.352,0.093 -0.652,0.218 -0.898,0.375 -0.246,0.154 -0.457,0.314 -0.632,0.478 -0.174,0.164 -0.404,0.412 -0.689,0.742 l 0,-0.257 c 0,-0.487 -0.117,-0.856 -0.351,-1.108 -0.233,-0.25 -0.531,-0.373 -0.893,-0.373 -0.367,0 -0.66,0.123 -0.878,0.373 -0.219,0.252 -0.328,0.621 -0.328,1.108 l 0,11.322 c 0,0.525 0.106,0.924 0.318,1.191 0.212,0.27 0.509,0.405 0.888,0.405 0.4,0 0.706,-0.129 0.922,-0.385 0.215,-0.258 0.322,-0.621 0.322,-1.098"
             style="fill:#000000;fill-opacity:1;fill-rule:nonzero;stroke:none"
             id="path4877"
             inkscape:connector-curvature="0" /></g><g
           id="g4879"
           transform="translate(376.6719,23.9082)"><path
             d="m 0,0 0.237,0.58 -3.191,8.035 c -0.196,0.461 -0.295,0.799 -0.295,1.008 0,0.221 0.058,0.426 0.171,0.615 0.115,0.192 0.271,0.344 0.47,0.457 0.2,0.116 0.407,0.172 0.623,0.172 0.373,0 0.654,-0.119 0.845,-0.357 0.191,-0.237 0.358,-0.576 0.503,-1.02 l 2.195,-6.383 2.08,5.936 c 0.164,0.48 0.313,0.857 0.446,1.131 0.133,0.271 0.273,0.455 0.422,0.549 0.149,0.095 0.36,0.144 0.632,0.144 0.197,0 0.385,-0.053 0.566,-0.158 0.18,-0.104 0.319,-0.244 0.417,-0.422 C 6.219,10.109 6.269,9.924 6.269,9.727 6.243,9.607 6.203,9.436 6.145,9.213 6.087,8.992 6.019,8.766 5.937,8.539 L 2.555,-0.312 C 2.263,-1.092 1.979,-1.701 1.7,-2.145 1.421,-2.588 1.053,-2.93 0.593,-3.166 0.134,-3.404 -0.485,-3.523 -1.264,-3.523 c -0.759,0 -1.329,0.082 -1.708,0.246 -0.382,0.166 -0.57,0.466 -0.57,0.904 0,0.297 0.089,0.527 0.271,0.687 0.179,0.163 0.447,0.245 0.801,0.245 0.139,0 0.276,-0.02 0.409,-0.059 0.165,-0.037 0.307,-0.057 0.427,-0.057 0.297,0 0.532,0.043 0.703,0.133 0.171,0.088 0.324,0.242 0.461,0.461 C -0.334,-0.746 -0.177,-0.424 0,0"
             style="fill:#000000;fill-opacity:1;fill-rule:nonzero;stroke:none"
             id="path4881"
             inkscape:connector-curvature="0" /></g><g
           id="g4883"
           transform="translate(414.2344,34.5508)"><path
             d="m 0,0 0.619,0 0,0.777 c 0,0.815 0.1,1.457 0.307,1.938 0.203,0.478 0.554,0.826 1.047,1.045 0.49,0.217 1.162,0.326 2.015,0.326 1.52,0 2.274,-0.367 2.274,-1.113 C 6.262,2.734 6.182,2.527 6.021,2.357 5.867,2.188 5.678,2.102 5.463,2.102 5.363,2.102 5.186,2.119 4.936,2.16 4.699,2.193 4.484,2.217 4.312,2.217 3.846,2.217 3.547,2.076 3.408,1.801 3.281,1.525 3.213,1.133 3.213,0.617 L 3.213,0 3.846,0 c 0.99,0 1.48,-0.297 1.48,-0.896 0,-0.418 -0.127,-0.69 -0.392,-0.805 -0.262,-0.113 -0.623,-0.17 -1.088,-0.17 l -0.633,0 0,-6.871 c 0,-0.512 -0.121,-0.901 -0.369,-1.168 -0.242,-0.274 -0.555,-0.406 -0.944,-0.406 -0.367,0 -0.67,0.132 -0.918,0.406 -0.244,0.267 -0.363,0.656 -0.363,1.168 l 0,6.871 -0.715,0 c -0.388,0 -0.681,0.084 -0.892,0.262 -0.209,0.17 -0.315,0.398 -0.315,0.677 C -1.303,-0.309 -0.869,0 0,0"
             style="fill:#000000;fill-opacity:1;fill-rule:nonzero;stroke:none"
             id="path4885"
             inkscape:connector-curvature="0" /></g><g
           id="g4887"
           transform="translate(422.7246,27.9766)"><path
             d="m 0,0 0,-2.168 c 0,-0.523 -0.133,-0.92 -0.375,-1.18 -0.246,-0.265 -0.559,-0.394 -0.937,-0.394 -0.381,0 -0.688,0.131 -0.926,0.4 -0.237,0.264 -0.362,0.656 -0.362,1.174 l 0,7.223 c 0,1.166 0.42,1.748 1.262,1.748 0.434,0 0.742,-0.135 0.934,-0.408 0.189,-0.274 0.295,-0.674 0.316,-1.208 0.309,0.534 0.625,0.934 0.949,1.208 0.332,0.273 0.762,0.408 1.309,0.408 0.549,0 1.072,-0.135 1.586,-0.408 C 4.271,6.121 4.527,5.758 4.527,5.311 4.527,4.996 4.416,4.73 4.201,4.529 3.98,4.32 3.746,4.217 3.494,4.217 3.395,4.217 3.164,4.279 2.803,4.396 2.438,4.51 2.113,4.57 1.84,4.57 1.459,4.57 1.146,4.467 0.908,4.271 0.666,4.066 0.477,3.775 0.344,3.385 0.215,2.99 0.125,2.52 0.07,1.98 0.021,1.439 0,0.777 0,0"
             style="fill:#000000;fill-opacity:1;fill-rule:nonzero;stroke:none"
             id="path4889"
             inkscape:connector-curvature="0" /></g><g
           id="g4891"
           transform="translate(429.5703,30.3438)"><path
             d="M 0,0 4.701,0 C 4.639,0.885 4.404,1.549 3.988,1.986 3.57,2.428 3.029,2.646 2.348,2.646 1.701,2.646 1.17,2.426 0.756,1.977 0.342,1.531 0.088,0.873 0,0 m 5.074,-1.475 -5.074,0 c 0.01,-0.588 0.125,-1.111 0.355,-1.558 0.235,-0.447 0.54,-0.787 0.924,-1.018 0.385,-0.226 0.805,-0.34 1.27,-0.34 0.31,0 0.592,0.034 0.849,0.112 0.254,0.07 0.504,0.185 0.745,0.341 0.242,0.153 0.461,0.319 0.664,0.5 0.203,0.174 0.466,0.417 0.791,0.719 0.134,0.114 0.324,0.174 0.568,0.174 0.268,0 0.48,-0.074 0.648,-0.223 0.166,-0.146 0.245,-0.349 0.245,-0.617 0,-0.234 -0.09,-0.508 -0.268,-0.818 C 6.604,-4.521 6.328,-4.82 5.955,-5.109 5.58,-5.395 5.115,-5.637 4.557,-5.824 3.998,-6.014 3.352,-6.109 2.625,-6.109 c -1.67,0 -2.963,0.472 -3.887,1.422 -0.924,0.951 -1.39,2.242 -1.39,3.867 0,0.767 0.117,1.478 0.347,2.134 0.225,0.659 0.557,1.217 0.998,1.688 0.436,0.471 0.971,0.828 1.614,1.078 0.636,0.25 1.345,0.375 2.127,0.375 1.011,0 1.88,-0.215 2.607,-0.646 C 5.764,3.387 6.314,2.832 6.67,2.154 7.031,1.475 7.211,0.787 7.211,0.08 7.211,-0.568 7.023,-0.99 6.65,-1.186 6.277,-1.379 5.752,-1.475 5.074,-1.475"
             style="fill:#000000;fill-opacity:1;fill-rule:nonzero;stroke:none"
             id="path4893"
             inkscape:connector-curvature="0" /></g><g
           id="g4895"
           transform="translate(440.3594,30.3438)"><path
             d="M 0,0 4.701,0 C 4.637,0.885 4.396,1.549 3.986,1.986 3.564,2.428 3.023,2.646 2.344,2.646 1.697,2.646 1.168,2.426 0.75,1.977 0.338,1.531 0.084,0.873 0,0 m 5.072,-1.475 -5.072,0 c 0.006,-0.588 0.125,-1.111 0.354,-1.558 0.232,-0.447 0.539,-0.787 0.921,-1.018 0.383,-0.226 0.805,-0.34 1.272,-0.34 0.307,0 0.592,0.034 0.844,0.112 0.259,0.07 0.505,0.185 0.75,0.341 0.242,0.153 0.461,0.319 0.664,0.5 0.199,0.174 0.465,0.417 0.789,0.719 0.135,0.114 0.326,0.174 0.568,0.174 0.268,0 0.483,-0.074 0.65,-0.223 0.165,-0.146 0.241,-0.349 0.241,-0.617 0,-0.234 -0.088,-0.508 -0.274,-0.818 C 6.602,-4.521 6.324,-4.82 5.949,-5.109 5.578,-5.395 5.109,-5.637 4.553,-5.824 3.996,-6.014 3.346,-6.109 2.619,-6.109 c -1.668,0 -2.959,0.472 -3.887,1.422 -0.923,0.951 -1.388,2.242 -1.388,3.867 0,0.767 0.115,1.478 0.347,2.134 0.227,0.659 0.559,1.217 0.997,1.688 C -0.877,3.473 -0.34,3.83 0.301,4.08 0.939,4.33 1.652,4.455 2.43,4.455 3.439,4.455 4.309,4.24 5.043,3.809 5.764,3.387 6.309,2.832 6.664,2.154 7.023,1.475 7.209,0.787 7.209,0.08 7.209,-0.568 7.018,-0.99 6.648,-1.186 6.273,-1.379 5.748,-1.475 5.072,-1.475"
             style="fill:#000000;fill-opacity:1;fill-rule:nonzero;stroke:none"
             id="path4897"
             inkscape:connector-curvature="0" /></g><g
           id="g4899"
           transform="translate(456.1953,29.5527)"><path
             d="m 0,0 c 0,0.686 -0.105,1.273 -0.314,1.764 -0.209,0.492 -0.498,0.867 -0.866,1.127 -0.367,0.263 -0.783,0.396 -1.232,0.396 -0.715,0 -1.318,-0.283 -1.809,-0.844 -0.492,-0.566 -0.74,-1.394 -0.74,-2.492 0,-1.027 0.244,-1.834 0.736,-2.406 0.487,-0.574 1.086,-0.859 1.813,-0.859 0.428,0 0.83,0.126 1.197,0.373 0.371,0.252 0.664,0.627 0.883,1.127 C -0.111,-1.312 0,-0.707 0,0 m -5.084,3.768 0,-0.311 c 0.486,0.602 0.994,1.043 1.525,1.324 0.518,0.285 1.118,0.428 1.782,0.428 C -0.982,5.209 -0.242,5 0.43,4.592 1.102,4.178 1.629,3.576 2.02,2.785 2.408,1.99 2.605,1.055 2.605,-0.029 2.605,-0.824 2.492,-1.561 2.27,-2.23 2.045,-2.898 1.732,-3.457 1.34,-3.91 0.947,-4.359 0.484,-4.711 -0.049,-4.955 -0.592,-5.197 -1.16,-5.318 -1.777,-5.318 c -0.739,0 -1.364,0.148 -1.866,0.447 -0.502,0.291 -0.982,0.732 -1.441,1.305 l 0,-3.893 c 0,-1.135 -0.416,-1.709 -1.244,-1.709 -0.49,0 -0.809,0.147 -0.971,0.439 -0.152,0.299 -0.234,0.723 -0.234,1.292 l 0,11.193 c 0,0.494 0.107,0.859 0.32,1.107 0.215,0.239 0.512,0.364 0.885,0.364 0.369,0 0.666,-0.125 0.896,-0.373 0.235,-0.254 0.348,-0.612 0.348,-1.086"
             style="fill:#000000;fill-opacity:1;fill-rule:nonzero;stroke:none"
             id="path4901"
             inkscape:connector-curvature="0" /></g><g
           id="g4903"
           transform="translate(462.6953,33.3086)"><path
             d="m 0,0 0,-7.502 c 0,-0.516 -0.123,-0.908 -0.369,-1.172 -0.25,-0.269 -0.561,-0.4 -0.942,-0.4 -0.38,0 -0.685,0.133 -0.927,0.406 -0.235,0.275 -0.356,0.664 -0.356,1.166 l 0,7.428 c 0,0.51 0.121,0.894 0.356,1.154 0.242,0.264 0.547,0.391 0.927,0.391 0.381,0 0.692,-0.127 0.942,-0.391 C -0.123,0.82 0,0.457 0,0 m -1.283,2.678 c -0.363,0 -0.67,0.115 -0.924,0.336 -0.26,0.222 -0.387,0.531 -0.387,0.935 0,0.369 0.131,0.67 0.397,0.91 0.261,0.235 0.566,0.356 0.914,0.356 0.34,0 0.635,-0.106 0.892,-0.319 C -0.131,4.678 0,4.361 0,3.949 0,3.551 -0.127,3.238 -0.377,3.014 -0.631,2.793 -0.932,2.678 -1.283,2.678"
             style="fill:#000000;fill-opacity:1;fill-rule:nonzero;stroke:none"
             id="path4905"
             inkscape:connector-curvature="0" /></g><g
           id="g4907"
           transform="translate(471.0547,25.418)"><path
             d="m 0,0 -2.283,3.766 -1.408,-1.328 0,-2.067 c 0,-0.498 -0.133,-0.881 -0.397,-1.148 -0.258,-0.274 -0.566,-0.407 -0.906,-0.407 -0.399,0 -0.715,0.131 -0.942,0.401 -0.226,0.263 -0.343,0.656 -0.343,1.174 l 0,11.062 c 0,0.574 0.115,1.012 0.332,1.315 0.222,0.304 0.545,0.451 0.953,0.451 0.398,0 0.713,-0.137 0.949,-0.41 0.234,-0.272 0.354,-0.674 0.354,-1.204 l 0,-6.293 2.916,3.063 c 0.361,0.377 0.632,0.641 0.826,0.779 0.189,0.139 0.42,0.207 0.689,0.207 0.326,0 0.594,-0.103 0.817,-0.308 C 1.768,8.848 1.877,8.588 1.877,8.279 1.877,7.9 1.523,7.391 0.822,6.758 L -0.555,5.496 2.104,1.312 C 2.297,1 2.443,0.77 2.527,0.607 2.611,0.447 2.658,0.287 2.658,0.145 2.658,-0.268 2.543,-0.59 2.316,-0.83 2.092,-1.066 1.793,-1.184 1.432,-1.184 c -0.317,0 -0.565,0.08 -0.735,0.256 C 0.527,-0.756 0.291,-0.445 0,0"
             style="fill:#000000;fill-opacity:1;fill-rule:nonzero;stroke:none"
             id="path4909"
             inkscape:connector-curvature="0" /></g><g
           id="g4911"
           transform="translate(476.6914,24.2344)"><path
             d="m 0,0 c -0.393,0 -0.729,0.125 -1.014,0.381 -0.285,0.248 -0.429,0.605 -0.429,1.064 0,0.385 0.138,0.719 0.41,0.994 0.275,0.28 0.607,0.42 1.008,0.42 0.398,0 0.736,-0.14 1.023,-0.412 C 1.277,2.172 1.42,1.834 1.42,1.445 1.42,0.992 1.277,0.637 0.998,0.385 0.711,0.125 0.379,0 0,0"
             style="fill:#000000;fill-opacity:1;fill-rule:nonzero;stroke:none"
             id="path4913"
             inkscape:connector-curvature="0" /></g><g
           id="g4915"
           transform="translate(489.5898,27.4434)"><path
             d="m 0,0 c 0,-0.32 -0.098,-0.668 -0.291,-1.033 -0.191,-0.371 -0.488,-0.719 -0.887,-1.051 -0.394,-0.332 -0.89,-0.602 -1.494,-0.803 -0.601,-0.203 -1.281,-0.306 -2.031,-0.306 -1.606,0 -2.858,0.468 -3.758,1.4 -0.894,0.936 -1.346,2.189 -1.346,3.76 0,1.068 0.205,2.006 0.619,2.824 0.409,0.814 1.004,1.447 1.782,1.895 0.779,0.447 1.717,0.669 2.795,0.669 0.673,0 1.287,-0.097 1.851,-0.294 0.561,-0.196 1.033,-0.452 1.426,-0.76 0.387,-0.315 0.686,-0.643 0.889,-0.992 0.207,-0.352 0.308,-0.68 0.308,-0.987 C -0.137,4.014 -0.25,3.75 -0.48,3.535 -0.715,3.32 -0.996,3.211 -1.318,3.211 c -0.219,0 -0.399,0.057 -0.541,0.166 -0.145,0.111 -0.305,0.289 -0.479,0.541 -0.318,0.478 -0.646,0.842 -0.996,1.08 -0.344,0.242 -0.781,0.361 -1.314,0.361 -0.762,0 -1.383,-0.297 -1.854,-0.896 -0.467,-0.596 -0.703,-1.42 -0.703,-2.455 0,-0.488 0.062,-0.94 0.184,-1.348 0.117,-0.406 0.291,-0.756 0.519,-1.043 0.231,-0.287 0.504,-0.506 0.826,-0.654 0.324,-0.154 0.682,-0.227 1.065,-0.227 0.521,0 0.966,0.121 1.336,0.362 0.377,0.24 0.703,0.607 0.986,1.101 0.158,0.291 0.328,0.518 0.51,0.684 0.181,0.164 0.408,0.25 0.675,0.25 0.317,0 0.581,-0.123 0.786,-0.363 C -0.107,0.529 0,0.271 0,0"
             style="fill:#000000;fill-opacity:1;fill-rule:nonzero;stroke:none"
             id="path4917"
             inkscape:connector-curvature="0" /></g><g
           id="g4919"
           transform="translate(498.1758,29.5039)"><path
             d="M 0,0 C 0,1.059 -0.234,1.881 -0.697,2.469 -1.16,3.064 -1.787,3.357 -2.572,3.357 -3.08,3.357 -3.527,3.225 -3.914,2.963 -4.301,2.701 -4.596,2.314 -4.805,1.799 -5.014,1.285 -5.119,0.686 -5.119,0 c 0,-0.678 0.101,-1.268 0.308,-1.773 0.209,-0.51 0.502,-0.897 0.887,-1.166 0.385,-0.266 0.834,-0.405 1.352,-0.405 0.785,0 1.412,0.297 1.875,0.893 C -0.234,-1.861 0,-1.041 0,0 m 2.604,0 c 0,-0.77 -0.122,-1.484 -0.356,-2.139 -0.246,-0.652 -0.592,-1.213 -1.049,-1.677 -0.455,-0.469 -1.002,-0.829 -1.633,-1.08 -0.638,-0.249 -1.349,-0.375 -2.138,-0.375 -0.785,0 -1.492,0.126 -2.121,0.382 -0.623,0.248 -1.17,0.614 -1.625,1.082 -0.461,0.477 -0.809,1.034 -1.053,1.676 -0.229,0.645 -0.35,1.356 -0.35,2.131 0,0.787 0.123,1.506 0.358,2.158 0.242,0.655 0.59,1.213 1.039,1.674 0.451,0.461 0.994,0.816 1.631,1.07 0.644,0.248 1.349,0.373 2.121,0.373 0.785,0 1.498,-0.125 2.138,-0.38 C 0.205,4.643 0.75,4.279 1.211,3.814 1.668,3.34 2.014,2.785 2.25,2.143 2.484,1.492 2.604,0.783 2.604,0"
             style="fill:#000000;fill-opacity:1;fill-rule:nonzero;stroke:none"
             id="path4921"
             inkscape:connector-curvature="0" /></g><g
           id="g4923"
           transform="translate(510.6719,29.3145)"><path
             d="m 0,0 0,-3.447 c 0,-0.547 -0.121,-0.951 -0.369,-1.227 -0.25,-0.273 -0.572,-0.408 -0.979,-0.408 -0.392,0 -0.713,0.135 -0.951,0.408 -0.246,0.276 -0.371,0.68 -0.371,1.227 l 0,4.131 c 0,0.654 -0.021,1.162 -0.064,1.525 -0.045,0.354 -0.168,0.654 -0.362,0.883 -0.197,0.234 -0.509,0.351 -0.931,0.351 -0.85,0 -1.407,-0.291 -1.676,-0.88 C -5.971,1.986 -6.109,1.148 -6.109,0.055 l 0,-3.502 c 0,-0.537 -0.123,-0.946 -0.362,-1.223 -0.25,-0.273 -0.568,-0.412 -0.965,-0.412 -0.396,0 -0.716,0.139 -0.966,0.412 -0.252,0.277 -0.377,0.686 -0.377,1.223 l 0,7.42 c 0,0.488 0.111,0.859 0.336,1.111 0.228,0.256 0.525,0.381 0.888,0.381 0.358,0 0.653,-0.123 0.893,-0.356 0.236,-0.238 0.353,-0.566 0.353,-0.984 l 0,-0.244 c 0.454,0.535 0.936,0.931 1.446,1.18 0.515,0.259 1.082,0.386 1.713,0.386 0.65,0 1.211,-0.131 1.677,-0.39 0.469,-0.26 0.854,-0.655 1.161,-1.176 0.439,0.527 0.908,0.922 1.41,1.18 0.5,0.257 1.052,0.386 1.662,0.386 0.705,0 1.32,-0.142 1.834,-0.42 C 5.104,4.75 5.486,4.348 5.74,3.832 5.961,3.359 6.07,2.623 6.07,1.615 l 0,-5.062 C 6.07,-3.994 5.949,-4.398 5.703,-4.674 5.457,-4.947 5.129,-5.082 4.725,-5.082 4.33,-5.082 4.01,-4.943 3.76,-4.67 3.51,-4.393 3.383,-3.984 3.383,-3.447 l 0,4.361 C 3.383,1.473 3.359,1.918 3.314,2.252 3.268,2.59 3.137,2.873 2.932,3.1 2.719,3.326 2.4,3.443 1.979,3.443 1.637,3.443 1.312,3.336 1.004,3.135 0.697,2.938 0.457,2.658 0.283,2.322 0.098,1.885 0,1.109 0,0"
             style="fill:#000000;fill-opacity:1;fill-rule:nonzero;stroke:none"
             id="path4925"
             inkscape:connector-curvature="0" /></g><g
           id="g4927"
           transform="translate(389.9668,30.1328)"><path
             d="M 0,0 C -0.002,0.004 -0.002,0.01 -0.002,0.018 -0.002,0.01 -0.002,0.004 0,0"
             style="fill:#000000;fill-opacity:1;fill-rule:nonzero;stroke:none"
             id="path4929"
             inkscape:connector-curvature="0" /></g><g
           id="g4931"
           transform="translate(390.0977,29.3027)"><path
             d="M 0,0 0.003,0 C -0.047,0.236 -0.085,0.471 -0.116,0.703 -0.085,0.469 -0.047,0.234 0,0"
             style="fill:#000000;fill-opacity:1;fill-rule:nonzero;stroke:none"
             id="path4933"
             inkscape:connector-curvature="0" /></g><g
           id="g4935"
           transform="translate(390.9561,26.8965)"><path
             d="M 0,0 C -0.006,0.01 -0.011,0.021 -0.017,0.033 -0.011,0.021 -0.006,0.01 0,0"
             style="fill:#000000;fill-opacity:1;fill-rule:nonzero;stroke:none"
             id="path4937"
             inkscape:connector-curvature="0" /></g><g
           id="g4939"
           transform="translate(390.874,27.0566)"><path
             d="M 0,0 C -0.022,0.045 -0.044,0.09 -0.065,0.135 -0.044,0.088 -0.022,0.045 0,0"
             style="fill:#000000;fill-opacity:1;fill-rule:nonzero;stroke:none"
             id="path4941"
             inkscape:connector-curvature="0" /></g><g
           id="g4943"
           transform="translate(390.3389,28.377)"><path
             d="M 0,0 C 0.127,-0.4 0.28,-0.789 0.457,-1.158 0.277,-0.781 0.127,-0.393 0.003,0 L 0,0 Z"
             style="fill:#000000;fill-opacity:1;fill-rule:nonzero;stroke:none"
             id="path4945"
             inkscape:connector-curvature="0" /></g><g
           id="g4947"
           transform="translate(400.0044,40.0684)"><path
             d="m 0,0 c 0.501,0 0.871,-0.039 1.294,-0.111 l 0.122,0.763 c 0,0 -1.172,0.36 -2.711,0.235 l -0.122,0.414 c 0.479,0.101 0.838,0.527 0.838,1.035 0,0.582 -0.474,1.053 -1.057,1.053 -0.583,0 -1.055,-0.471 -1.055,-1.053 0,-0.508 0.358,-0.934 0.836,-1.035 L -1.722,0.838 C -3.356,0.613 -4.657,-0.023 -4.657,-0.023 l 0.231,-0.706 c 0.988,0.329 1.846,0.53 2.624,0.614 C -1.041,-0.035 -0.467,0 0,0"
             style="fill:#000000;fill-opacity:1;fill-rule:nonzero;stroke:none"
             id="path4949"
             inkscape:connector-curvature="0" /></g><g
           id="g4951"
           transform="translate(390.9365,36.2109)"><path
             d="M 0,0 0.006,0.008 C 0.044,0.057 0.082,0.104 0.119,0.15 l -0.313,0.225 -0.488,0.357 c -0.027,-0.039 -0.795,-0.744 -1.401,-2.048 -0.025,0.041 -0.056,0.082 -0.09,0.119 -0.181,0.199 -0.435,0.301 -0.758,0.295 l -0.015,0 c -0.2,0 -0.337,0.066 -0.427,0.146 0.09,0.113 0.144,0.256 0.144,0.414 0,0.367 -0.3,0.668 -0.67,0.668 -0.369,0 -0.668,-0.301 -0.668,-0.668 0,-0.371 0.299,-0.67 0.668,-0.67 0.058,0 0.113,0.01 0.167,0.022 0.165,-0.184 0.425,-0.342 0.808,-0.334 0.196,0.002 0.341,-0.049 0.437,-0.156 0.111,-0.122 0.149,-0.295 0.16,-0.428 -10e-4,-0.002 -10e-4,-0.004 -0.003,-0.004 -0.436,-1.19 -0.311,-2.67 -0.311,-2.67 l 1.057,-0.043 c 0.022,0.539 0.099,1.482 0.372,2.23 C -0.686,-0.945 -0.027,-0.039 0,0"
             style="fill:#000000;fill-opacity:1;fill-rule:nonzero;stroke:none"
             id="path4953"
             inkscape:connector-curvature="0" /></g><g
           id="g4955"
           transform="translate(409.2031,39.1855)"><path
             d="m 0,0 c -0.367,0 -0.668,-0.299 -0.668,-0.67 0,-0.057 0.008,-0.111 0.023,-0.164 -0.183,-0.166 -0.343,-0.428 -0.337,-0.811 0.003,-0.197 -0.047,-0.339 -0.155,-0.437 -0.084,-0.074 -0.191,-0.115 -0.295,-0.141 -0.787,1.104 -1.756,1.776 -1.756,1.776 L -3.947,-1.26 c 0.574,-0.521 1.16,-1.176 1.728,-1.99 0.395,-0.564 0.799,-1.291 1.137,-2.016 l 1.023,0.487 c 0,0 -0.466,1.156 -1.125,2.191 0.114,0.041 0.229,0.104 0.33,0.193 0.202,0.18 0.299,0.436 0.293,0.758 -0.001,0.207 0.067,0.348 0.149,0.442 0.115,-0.088 0.258,-0.143 0.412,-0.143 0.371,0 0.67,0.299 0.67,0.668 C 0.67,-0.299 0.371,0 0,0"
             style="fill:#000000;fill-opacity:1;fill-rule:nonzero;stroke:none"
             id="path4957"
             inkscape:connector-curvature="0" /></g><g
           id="g4959"
           transform="translate(406.5469,29.9824)"><path
             d="m 0,0 c -1.41,-0.686 -3.729,-1.594 -6.782,-2.02 -1.198,-0.166 -2.359,-0.226 -3.428,-0.226 -1.391,0 -2.62,0.103 -3.562,0.223 -1.077,0.134 -1.918,0.3 -2.433,0.418 0.124,-0.393 0.274,-0.782 0.454,-1.159 0.003,-0.009 0.008,-0.021 0.013,-0.027 0.021,-0.045 0.043,-0.09 0.065,-0.135 0.022,-0.043 0.043,-0.086 0.065,-0.127 0.006,-0.011 0.011,-0.023 0.017,-0.033 0.303,-0.57 0.667,-1.094 1.081,-1.549 1.44,-1.574 2.907,-1.824 2.921,-1.826 l 0.023,-0.002 0.021,-0.008 c 0.013,-0.006 1.314,-0.425 3.292,-0.425 1.945,0 3.855,0.392 5.673,1.167 1.348,0.69 2.623,1.737 3.254,2.67 0.488,0.723 0.842,1.493 1.051,2.293 C 1.836,-0.34 1.924,0.342 1.871,1.061 1.475,0.793 0.848,0.414 0,0"
             style="fill:#000000;fill-opacity:1;fill-rule:nonzero;stroke:none"
             id="path4961"
             inkscape:connector-curvature="0" /></g><g
           id="g4963"
           transform="translate(395.417,36.6133)"><path
             d="m 0,0 c 1.557,0 2.817,-1.262 2.817,-2.818 0,-1.555 -1.26,-2.815 -2.817,-2.815 -1.555,0 -2.816,1.26 -2.816,2.815 C -2.816,-1.262 -1.555,0 0,0 m 8.241,-0.07 c 0.961,0 1.744,-0.782 1.744,-1.742 0,-0.963 -0.783,-1.745 -1.744,-1.745 -0.961,0 -1.742,0.782 -1.742,1.745 0,0.96 0.781,1.742 1.742,1.742 M -4.028,-0.736 C -4.069,-0.797 -4.68,-1.662 -5.163,-2.99 -5.525,-3.984 -5.509,-5.434 -5.509,-5.449 l 0,-0.004 c 0,-0.34 0.019,-0.676 0.057,-1.01 0,-0.008 0,-0.014 0.002,-0.017 0.004,-0.043 0.011,-0.084 0.015,-0.127 0.03,-0.233 0.069,-0.467 0.119,-0.704 0.7,-0.177 4.878,-1.152 9.548,-0.501 2.927,0.408 5.15,1.273 6.499,1.927 1.122,0.543 1.842,1.035 2.12,1.239 C 12.573,-3.619 11.81,-2.006 11.108,-1 9.103,1.865 6.94,2.6 5.831,2.783 5.407,2.852 5.068,2.893 4.587,2.893 4.14,2.893 3.585,2.855 2.844,2.777 2.101,2.701 1.272,2.506 0.312,2.182 -1.036,1.73 -2.255,1.023 -3.215,0.135 L -3.248,0.104 c -0.142,-0.131 -0.439,-0.407 -0.78,-0.84"
             style="fill:#000000;fill-opacity:1;fill-rule:nonzero;stroke:none"
             id="path4965"
             inkscape:connector-curvature="0" /></g></g></g><g
       id="g4967"><g
         id="g4969"
         clip-path="url(#clipPath4971)"><g
           id="g4975"
           transform="translate(631.5508,292.1279)" /><g
           id="g4979"
           transform="translate(662.1152,317.8447)" /><g
           id="g4983"
           transform="translate(503.8857,399.5308)" /><g
           id="g4989"
           transform="translate(479.5225,360.4258)" /><g
           id="g4993"
           transform="translate(527.2187,329.9492)" /><g
           id="g4997"
           transform="translate(381.6875,667.4062)" /><g
           id="g5001"
           transform="translate(321.1089,681.1299)" /><g
           id="g5005"
           transform="translate(658.6484,145.0049)" /><g
           id="g5011"
           transform="translate(632.9941,145.0049)" /><g
           id="g5015"
           transform="translate(696.1309,194.2275)" /><g
           id="g5019"
           transform="translate(646.1875,221.4209)" /><g
           id="g5023"
           transform="translate(354.6089,137.5303)" /><g
           id="g5027"
           transform="translate(371.9966,161.1182)" /><g
           id="g5031"
           transform="translate(349.5244,160.2236)" /><g
           id="g5035"
           transform="translate(326.7881,219.9551)" /><g
           id="g5039"
           transform="translate(158.9971,161.7617)" /><g
           id="g5043"
           transform="translate(158.9971,152.334)" /><g
           id="g5047"
           transform="translate(198.605,154.8203)" /><g
           id="g5051"
           transform="translate(224.7534,181.4902)" /><g
           id="g5055"
           transform="translate(508.3711,476.4243)" /><g
           id="g5059"
           transform="translate(479.1221,492.0835)" /><g
           id="g5063"
           transform="translate(508.3711,492.0835)" /><g
           id="g5067"
           transform="translate(524.0576,524.4136)" /><g
           id="g5071"
           transform="translate(367.6782,319.7217)" /><g
           id="g5075"
           transform="translate(317.8501,339.7021)" /><g
           id="g5079"
           transform="translate(360.4497,339.7021)" /><g
           id="g5083"
           transform="translate(292.9116,358.8018)" /><g
           id="g5087"
           transform="translate(530.6963,166.4951)" /><g
           id="g5091"
           transform="translate(532.4346,200.2021)" /><g
           id="g5095"
           transform="translate(676.5244,571.771)" /><g
           id="g5099"
           transform="translate(661.6377,504.8301)" /><g
           id="g5103"
           transform="translate(629.9307,504.8301)" /><g
           id="g5107"
           transform="translate(661.6377,520.7363)" /><g
           id="g5111"
           transform="translate(629.9307,520.7363)" /><g
           id="g5115"
           transform="translate(661.6377,498.5967)" /><g
           id="g5119"
           transform="translate(195.437,642.3916)" /><g
           id="g5123"
           transform="translate(191.7329,651.8643)" /><g
           id="g5127"
           transform="translate(163.3335,651.8643)" /><g
           id="g5131"
           transform="translate(538.1562,680.8145)" /><g
           id="g5135"
           transform="translate(297.8657,525.2783)" /><g
           id="g5139"
           transform="translate(365.7563,525.2783)" /><g
           id="g5143"
           transform="translate(365.7563,498.7812)" /><g
           id="g5147"
           transform="translate(239.8433,510.2725)" /><g
           id="g5151"
           transform="translate(171.6699,468.46)" /><g
           id="g5155"
           transform="translate(184.7104,453.2187)" /><g
           id="g5159"
           transform="translate(184.7104,468.043)" /><g
           id="g5163"
           transform="translate(169.0615,453.9951)" /><g
           id="g5167"
           transform="translate(171.6699,452.8027)" /><g
           id="g5171"
           transform="translate(169.0615,461.666)" /><g
           id="g5175"
           transform="translate(196.2964,458.2627)" /><g
           id="g5179"
           transform="translate(140.8584,328.6631)" /><g
           id="g5183"
           transform="translate(226.9531,346.4629)" /><g
           id="g5187"
           transform="translate(145.6279,317.3193)" /><g
           id="g5191"
           transform="translate(185.0986,317.3193)" /><g
           id="g5195"
           transform="translate(127.7373,338.1748)" /><g
           id="g5199"
           transform="translate(127.7373,326.0088)" /><g
           id="g5203"
           transform="translate(127.8037,313.8428)" /><g
           id="g5207"
           transform="translate(225.1885,335.9746)" /><g
           id="g5211"
           transform="translate(242.1221,326.0088)" /><g
           id="g5215"
           transform="translate(242.5605,313.8428)" /><g
           id="g5219"
           transform="translate(667.1562,624.7456)" /><g
           id="g5223"
           transform="translate(704.625,690.3462)" /><g
           id="g5227"
           transform="translate(632.6074,665.7524)" /></g></g></g><g
     inkscape:groupmode="layer"
     id="layer18"
     inkscape:label="Faces 16"
     style="display:inline"><g
       id="g5386"
       transform="matrix(5.8183996,0,0,5.8183996,-4195.4769,-4099.534)"><path
         inkscape:connector-curvature="0"
         id="path5021"
         style="display:inline;fill:#000000;fill-opacity:1;fill-rule:nonzero;stroke:none"
         d="m 0,0 c -21.211,0 -38.252,-17.07 -38.252,-38.133 l 0,-18.203 c 0,-1.076 1.054,-1.506 2.139,-1.506 l 7.284,0 c 1.083,0 2.416,0.43 2.416,1.506 l 0,14.084 c 0,3.42 2.341,6.113 5.785,6.113 l 41.713,0 c 3.444,0 6.24,-2.693 6.24,-6.113 l 0,-14.084 c 0,-1.076 0.877,-1.506 1.961,-1.506 l 7.285,0 c 0.493,0 0.881,0.095 1.162,0.293 0.195,0.258 0.356,0.537 0.485,0.83 0.004,0.01 0.007,0.022 0.011,0.033 0.016,0.108 0.026,0.224 0.026,0.35 l 0,18.203 C 38.255,-17.07 21.215,0 0,0"
         transform="matrix(1.25,0,0,-1.25,807.73437,723.22388)" /><path
         inkscape:connector-curvature="0"
         id="path5017"
         style="display:inline;fill:#000000;fill-opacity:1;fill-rule:nonzero;stroke:none"
         d="m 0,0 c -4.045,23.1 -23.927,40.862 -48.157,40.862 l -4.308,0 c -24.241,0 -44.471,-17.776 -48.58,-40.889 -5.528,-0.469 -10.339,-5.182 -10.339,-10.776 l 0,-8.299 c 0,-5.894 5.343,-10.423 11.238,-10.423 l 7.417,0 c -0.008,0.127 -0.022,0.253 -0.022,0.382 l 0,18.204 c 0,23.367 19.327,42.378 42.808,42.378 11.4,0 22.214,-4.41 30.253,-12.417 8.023,-7.997 12.556,-18.637 12.556,-29.961 l 0,-18.204 c 0,-0.129 -0.012,-0.255 -0.019,-0.382 l 6.765,0 c 5.897,0 10.718,4.529 10.718,10.423 l 0,8.299 C 10.33,-5.039 5.718,-0.213 0,0"
         transform="matrix(1.25,0,0,-1.25,870.16363,757.21563)" /><path
         inkscape:connector-curvature="0"
         id="path5009"
         style="display:inline;fill:#000000;fill-opacity:1;fill-rule:nonzero;stroke:none"
         d="m 669.077,119.515 -6.955,0 0,12.166 6.955,0 0,-12.166 z m -9.562,-5.214 -6.956,0 0,13.035 6.956,0 0,-13.035 z m -0.867,48.382 c 5.098,0 9.245,-4.729 9.245,-10.537 0,-5.813 -4.147,-10.54 -9.245,-10.54 -5.097,0 -9.243,4.727 -9.243,10.54 0,5.808 4.146,10.537 9.243,10.537 m -9.567,-48.382 -6.955,0 0,13.035 6.955,0 0,-13.035 z m -9.562,0 -6.956,0 0,13.035 6.956,0 0,-13.035 z m -10.434,5.214 -6.954,0 0,12.166 6.954,0 0,-12.166 z m 3.909,43.168 c 5.098,0 9.245,-4.729 9.245,-10.537 0,-5.813 -4.147,-10.54 -9.245,-10.54 -5.098,0 -9.243,4.727 -9.243,10.54 0,5.808 4.145,10.537 9.243,10.537 m 35.964,2.402 0,14.084 c 0,1.074 -0.604,1.591 -1.686,1.591 l -41.712,0 c -1.082,0 -2.142,-0.517 -2.142,-1.591 l 0,-14.084 c 0,-3.416 -2.62,-6.027 -6.06,-6.027 l -1.313,0 0,-29.213 c 0,-16.435 13.115,-29.759 29.559,-29.759 16.444,0 29.559,13.324 29.559,29.759 l 0,29.226 c -3.312,0.154 -6.205,2.701 -6.205,6.014"
         transform="matrix(1.25,0,0,-1.25,0,1000)" /><path
         inkscape:connector-curvature="0"
         id="path5013"
         style="display:inline;fill:#000000;fill-opacity:1;fill-rule:nonzero;stroke:none"
         d="m 0,0 c 3.223,0 5.844,3.203 5.844,7.141 0,3.935 -2.621,7.136 -5.844,7.136 -3.222,0 -5.842,-3.201 -5.842,-7.136 C -5.842,3.203 -3.222,0 0,0"
         transform="matrix(1.25,0,0,-1.25,791.24262,818.74387)" /><path
         inkscape:connector-curvature="0"
         id="path5007"
         style="display:inline;fill:#000000;fill-opacity:1;fill-rule:nonzero;stroke:none"
         d="m 0,0 c 3.223,0 5.844,3.203 5.844,7.141 0,3.935 -2.621,7.136 -5.844,7.136 -3.222,0 -5.843,-3.201 -5.843,-7.136 C -5.843,3.203 -3.222,0 0,0"
         transform="matrix(1.25,0,0,-1.25,823.3105,818.74387)" /></g></g><g
     inkscape:groupmode="layer"
     id="layer17"
     inkscape:label="Faces 15"
     style="display:none"><g
       id="g5376"
       transform="matrix(5.9264096,0,0,5.9264096,-3157.6822,-4184.9186)"><path
         inkscape:connector-curvature="0"
         id="path5089"
         style="display:inline;fill:#000000;fill-opacity:1;fill-rule:nonzero;stroke:none"
         d="m 0,0 c 0,-2.67 -2.166,-4.834 -4.838,-4.834 l -23.362,0 c -2.671,0 -4.837,2.164 -4.837,4.834 l 0,6.842 c 0,1.282 0.51,2.512 1.417,3.42 0.907,0.907 2.138,1.416 3.42,1.416 L -4.838,11.677 C -2.166,11.677 0,9.511 0,6.84 L 0,0 Z m -30.43,-53.454 c 0,-0.703 -0.278,-1.378 -0.775,-1.875 -0.498,-0.498 -1.172,-0.776 -1.876,-0.776 l -5.999,0 c -1.464,0 -2.65,1.187 -2.65,2.652 l 0,24.243 c 0,0.704 0.279,1.378 0.776,1.876 0.497,0.497 1.171,0.776 1.875,0.776 l 5.999,-0.002 c 1.465,0 2.65,-1.187 2.65,-2.651 l 0,-24.243 z M -73.029,0 l 0,6.84 c 0,1.283 0.509,2.514 1.418,3.422 0.906,0.907 2.136,1.416 3.42,1.416 l 23.362,-0.001 c 2.672,0 4.837,-2.166 4.837,-4.837 l 0,-6.84 c 0,-2.67 -2.166,-4.834 -4.838,-4.834 l -23.361,0 c -2.672,0 -4.838,2.164 -4.838,4.834 m 69.224,22.973 -66.289,0 c -6.422,0 -11.629,-5.205 -11.629,-11.623 l 0,-15.858 c 0,-6.332 5.069,-11.471 11.371,-11.61 l 5.975,-44.057 c 0.445,-3.288 3.253,-5.488 6.57,-5.488 l 42.481,0 c 3.316,0 6.123,2.2 6.568,5.488 l 5.981,44.096 c 5.94,0.52 10.601,5.5 10.601,11.571 l 0,15.858 c 0,6.418 -5.207,11.623 -11.629,11.623"
         transform="matrix(1.25,0,0,-1.25,663.37037,791.88112)" /><path
         inkscape:connector-curvature="0"
         id="path5093"
         style="display:inline;fill:#000000;fill-opacity:1;fill-rule:nonzero;stroke:none"
         d="m 0,0 c 0,7.234 -6.217,12.729 -13.454,12.729 l -13.497,0 0,17.267 c 0,2.289 -2.056,4.145 -4.347,4.145 -2.291,0 -4.347,-1.856 -4.347,-4.145 l 0,-17.267 -6.085,0 0,17.267 c 0,2.289 -2.057,4.145 -4.347,4.145 -2.289,0 -4.347,-1.856 -4.347,-4.145 l 0,-17.267 -12.734,0 C -70.396,12.729 -76.506,7.234 -76.506,0 l 0,-3.781 L 0,-3.781 0,0 Z"
         transform="matrix(1.25,0,0,-1.25,665.54325,749.74738)" /></g></g><g
     inkscape:groupmode="layer"
     id="layer16"
     inkscape:label="Faces 14"
     style="display:none"><g
       id="g5367"
       transform="matrix(5.9289012,0,0,5.9289012,-1959.0903,-4186.8876)"><path
         inkscape:connector-curvature="0"
         id="path5029"
         style="display:inline;fill:#000000;fill-opacity:1;fill-rule:nonzero;stroke:none"
         d="m 0,0 c -1.162,1.844 -2.634,3.467 -4.347,4.8 l 0,8.077 c 0,18.164 -13.068,33.215 -30.429,35.933 l 0,-11.808 c 0,-3.004 -2.21,-5.44 -5.216,-5.44 -3.005,0 -5.216,2.436 -5.216,5.44 l 0,11.924 C -62.999,46.582 -76.506,31.342 -76.506,12.877 l 0,-8.443 c -1.751,-1.457 -3.223,-3.236 -4.347,-5.237 -1.516,-2.696 -2.392,-5.797 -2.392,-9.086 0,-3.289 0.877,-6.382 2.392,-9.069 1.123,-1.992 2.598,-3.757 4.347,-5.202 l 0,-15.582 c 0,-2.731 2.05,-4.944 4.781,-4.944 2.732,0 4.782,2.214 4.782,4.944 l 0,17.956 c -1.078,0.677 -2.052,1.474 -2.913,2.363 -2.449,2.527 -3.946,5.818 -3.946,9.403 0,7.862 7.134,14.339 15.903,14.339 l 35.427,0 c 8.768,0 15.903,-6.477 15.903,-14.339 0,-3.604 -1.514,-6.908 -3.984,-9.441 -0.979,-1.003 -2.106,-1.883 -3.358,-2.61 l 0,-17.671 c 0,-2.731 2.05,-4.944 4.782,-4.944 2.732,0 4.782,2.214 4.782,4.944 l 0,15.115 c 1.712,1.33 3.185,2.962 4.347,4.814 1.812,2.889 2.873,6.301 2.873,9.925 C 2.873,-6.268 1.811,-2.876 0,0"
         transform="matrix(1.25,0,0,-1.25,464.99575,798.60225)" /><path
         inkscape:connector-curvature="0"
         id="path5037"
         style="display:inline;fill:#000000;fill-opacity:1;fill-rule:nonzero;stroke:none"
         d="m 0,0 c 0.527,-0.431 1.112,-0.79 1.739,-1.075 l 0,-20.76 c 0,-1.877 1.599,-3.4 3.478,-3.4 1.878,0 3.477,1.523 3.477,3.4 l 0,20.947 c 0.637,0.332 1.219,0.75 1.739,1.236 1.554,1.449 2.532,3.507 2.532,5.799 0,4.384 -3.556,7.94 -7.943,7.94 -4.386,0 -7.941,-3.556 -7.941,-7.94 C -2.919,3.669 -1.781,1.456 0,0"
         transform="matrix(1.25,0,0,-1.25,408.48512,725.05613)" /><path
         inkscape:connector-curvature="0"
         id="path5033"
         style="display:inline;fill:#000000;fill-opacity:1;fill-rule:nonzero;stroke:none"
         d="m 0,0 -35.427,0 c -5.769,0 -10.461,-4.264 -10.461,-9.125 0,-4.86 4.692,-9.124 10.461,-9.124 l 35.427,0 c 5.768,0 10.461,4.264 10.461,9.124 C 10.461,-4.264 5.768,0 0,0"
         transform="matrix(1.25,0,0,-1.25,436.9055,799.7205)" /><path
         inkscape:connector-curvature="0"
         id="path5025"
         style="display:inline;fill:#000000;fill-opacity:1;fill-rule:nonzero;stroke:none"
         d="m 0,0 c -1.599,-0.491 -3.305,-0.77 -5.084,-0.77 l -14.043,0 0,-12.166 9.754,0 c 1.879,0 3.401,-1.597 3.401,-3.475 0,-1.878 -1.522,-3.476 -3.401,-3.476 l -26.851,0 c -1.878,0 -3.401,1.598 -3.401,3.476 0,1.878 1.523,3.475 3.401,3.475 l 10.142,0 0,12.166 -14.429,0 c -1.635,0 -3.212,0.227 -4.697,0.643 l 0,-16.027 c 0,-2.031 -0.7,-3.901 -1.856,-5.409 l 5.272,-8.461 c 2.386,-4.025 7.025,-6.373 11.706,-6.373 l 15.282,0 c 4.681,0 8.726,2.348 11.112,6.373 l 5.105,8.872 C 0.514,-19.721 0,-18.002 0,-16.154 L 0,0 Z"
         transform="matrix(1.25,0,0,-1.25,443.26112,828.08713)" /></g></g><g
     inkscape:groupmode="layer"
     id="layer15"
     inkscape:label="Faces 13"
     style="display:none"><g
       id="g5356"
       transform="matrix(5.9044917,0,0,5.9044917,-809.11364,-4167.5952)"><path
         inkscape:connector-curvature="0"
         id="path5053"
         style="display:inline;fill:#000000;fill-opacity:1;fill-rule:nonzero;stroke:none"
         d="m 0,0 0,9.389 c 0,7.773 -6.304,14.074 -14.081,14.074 l -66.601,0 c -7.776,0 -14.081,-6.301 -14.081,-14.074 l 0,-9.389 -4.347,0 0,18.442 c 0,10.084 8.16,18.056 18.248,18.056 l 66.921,0 c 10.088,0 18.288,-7.972 18.288,-18.056 L 4.347,0 0,0 Z m -26.148,-36.099 c -5.079,0 -9.057,7.191 -9.057,16.37 0,9.18 3.978,16.372 9.057,16.372 5.079,0 9.057,-7.192 9.057,-16.372 0,-9.179 -3.978,-16.37 -9.057,-16.37 m -5.15,-21.115 c 0,-1.036 -0.84,-1.876 -1.877,-1.876 l -27.543,0 c -1.037,0 -1.878,0.84 -1.878,1.876 l 0,4.068 c 0,1.037 0.841,1.876 1.878,1.876 l 27.543,0 c 1.037,0 1.877,-0.839 1.877,-1.876 l 0,-4.068 z m -51.704,44.429 c 0,14.506 7.575,25.869 17.246,25.869 9.67,0 17.245,-11.363 17.245,-25.869 0,-14.507 -7.575,-25.869 -17.245,-25.869 -9.671,0 -17.246,11.362 -17.246,25.869 M 14.244,0 l -2.073,0 0,18.442 c 0,14.583 -11.523,26.746 -26.112,26.746 l -66.921,0 c -14.59,0 -26.072,-12.163 -26.072,-26.746 l 0,-18.442 -2.113,0 c -2.745,0 -4.842,-2.344 -4.842,-5.088 l 0,-30.668 c 0,-2.744 2.097,-5.086 4.842,-5.086 l 14.284,0 0,-18.078 c 0,-7.773 6.305,-14.074 14.081,-14.074 l 66.601,0 C -6.304,-72.994 0,-66.693 0,-58.92 l 0,18.078 14.244,0 c 2.745,0 4.882,2.342 4.882,5.085 l 0,30.671 C 19.126,-2.344 16.989,0 14.244,0"
         transform="matrix(1.25,0,0,-1.25,280.94175,773.13725)" /><path
         inkscape:connector-curvature="0"
         id="path5041"
         style="display:inline;fill:#000000;fill-opacity:1;fill-rule:nonzero;stroke:none"
         d="m 0,0 c -1.348,0 -2.44,3.109 -2.44,6.943 0,3.834 1.092,6.942 2.44,6.942 1.348,0 2.44,-3.108 2.44,-6.942 C 2.44,3.109 1.348,0 0,0 m 0,20.594 c -2.997,0 -6.336,-5.607 -6.336,-13.651 0,-8.046 3.339,-13.651 6.336,-13.651 2.997,0 6.336,5.605 6.336,13.651 0,8.044 -3.339,13.651 -6.336,13.651"
         transform="matrix(1.25,0,0,-1.25,198.74637,797.79787)" /><path
         inkscape:connector-curvature="0"
         id="path5045"
         style="display:inline;fill:#000000;fill-opacity:1;fill-rule:nonzero;stroke:none"
         d="m 0,0 c -5.079,0 -9.057,7.19 -9.057,16.371 0,9.179 3.978,16.369 9.057,16.369 5.078,0 9.057,-7.19 9.057,-16.369 C 9.057,7.19 5.078,0 0,0 m 0,38.16 c -7.136,0 -13.165,-9.978 -13.165,-21.789 C -13.165,4.56 -7.136,-5.42 0,-5.42 7.136,-5.42 13.164,4.56 13.164,16.371 13.164,28.182 7.136,38.16 0,38.16"
         transform="matrix(1.25,0,0,-1.25,198.74637,809.5825)" /><path
         inkscape:connector-curvature="0"
         id="path5049"
         style="display:inline;fill:#000000;fill-opacity:1;fill-rule:nonzero;stroke:none"
         d="m 0,0 c -1.347,0 -2.44,3.107 -2.44,6.941 0,3.834 1.093,6.944 2.44,6.944 1.349,0 2.441,-3.11 2.441,-6.944 C 2.441,3.107 1.349,0 0,0 m 0,20.593 c -2.997,0 -6.335,-5.607 -6.335,-13.652 0,-8.045 3.338,-13.65 6.335,-13.65 2.998,0 6.337,5.605 6.337,13.65 0,8.045 -3.339,13.652 -6.337,13.652"
         transform="matrix(1.25,0,0,-1.25,248.25625,806.47463)" /></g></g><g
     inkscape:groupmode="layer"
     id="layer14"
     inkscape:label="Faces 12"
     style="display:none"><g
       id="g5346"
       transform="matrix(5.9114543,0,0,5.9114543,-4270.5783,-2953.6241)"><path
         inkscape:connector-curvature="0"
         id="path4981"
         style="display:inline;fill:#000000;fill-opacity:1;fill-rule:nonzero;stroke:none"
         d="m 0,0 c -6.943,0 -12.574,5.626 -12.574,12.564 0,6.942 5.631,12.567 12.574,12.567 6.941,0 12.57,-5.625 12.57,-12.567 C 12.57,5.626 6.941,0 0,0 m -33.074,0 c -6.942,0 -12.571,5.626 -12.571,12.564 0,6.942 5.629,12.567 12.571,12.567 6.943,0 12.57,-5.625 12.57,-12.567 C -20.504,5.626 -26.131,0 -33.074,0 m 68.728,12.477 -1.015,0 0,1.624 c 0,2.452 -1.649,4.458 -4.102,4.458 l -7.517,0 C 17.506,28.959 9.049,37.803 -1.006,42.461 l 0,7.768 9.776,19.025 c 1.964,0.226 3.783,1.396 4.753,3.287 1.549,3.01 0.36,6.701 -2.65,8.246 -3.01,1.546 -6.703,0.359 -8.25,-2.65 C 1.652,76.248 1.76,74.089 2.719,72.361 l -9.783,-19.043 -18.895,0 -9.783,19.043 c 0.959,1.728 1.066,3.886 0.096,5.776 -1.547,3.009 -5.241,4.196 -8.25,2.65 -3.012,-1.545 -4.2,-5.236 -2.653,-8.246 0.973,-1.891 2.791,-3.061 4.756,-3.287 l 9.49,-18.466 0,-8.429 c -9.955,-4.687 -18.32,-13.48 -23.791,-23.8 l -7.467,0 c -2.451,0 -4.386,-2.006 -4.386,-4.458 l 0,-1.624 -0.731,0 c -3.488,0 -6.314,-3.033 -6.314,-6.518 0,-3.486 2.826,-6.518 6.312,-6.518 l 0.733,0 0,-1.609 c 0,-2.452 1.935,-4.474 4.386,-4.474 l 94.098,0 c 2.453,0 4.102,2.022 4.102,4.474 l 0,1.609 1.015,0 c 3.489,0 6.317,3.032 6.317,6.518 0,3.485 -2.828,6.518 -6.317,6.518"
         transform="matrix(1.25,0,0,-1.25,827.644,602.69412)" /><path
         inkscape:connector-curvature="0"
         id="path4977"
         style="display:inline;fill:#000000;fill-opacity:1;fill-rule:nonzero;stroke:none"
         d="m 0,0 c 0,0.682 0.27,1.334 0.75,1.814 0.482,0.482 1.135,0.752 1.814,0.752 l 22.69,-0.002 c 1.418,0 2.564,-1.148 2.564,-2.564 l 0,-3.561 c 0,-0.68 -0.269,-1.334 -0.75,-1.814 -0.482,-0.48 -1.132,-0.752 -1.814,-0.752 L 2.564,-6.125 C 1.148,-6.125 0,-4.977 0,-3.561 L 0,0 Z m 14.027,-26.199 c 21.766,0 39.459,17.467 39.965,39.191 l -79.929,0 c 0.503,-21.724 18.195,-39.191 39.964,-39.191"
         transform="matrix(1.25,0,0,-1.25,789.4385,634.84012)" /></g></g><g
     inkscape:groupmode="layer"
     id="layer13"
     inkscape:label="Faces 11"
     style="display:none"><g
       id="g5337"
       transform="matrix(5.8801615,0,0,5.8801615,-3129.1416,-2935.3454)"><path
         inkscape:connector-curvature="0"
         id="path4987"
         style="display:inline;fill:#000000;fill-opacity:1;fill-rule:nonzero;stroke:none"
         d="m 520.264,281.35 -6.955,0 0,10.428 6.955,0 0,-10.428 z m -12.172,15.64 -6.086,0 0,10.428 6.086,0 0,-10.428 z m 0,-15.64 -6.086,0 0,10.428 6.086,0 0,-10.428 z m -11.302,15.64 -6.085,0 0,10.428 6.085,0 0,-10.428 z m 0,-15.64 -6.085,0 0,10.428 6.085,0 0,-10.428 z m -11.302,15.64 -6.086,0 0,10.428 6.086,0 0,-10.428 z m 0,-15.64 -6.086,0 0,10.428 6.086,0 0,-10.428 z m -11.302,15.64 -6.085,0 0,10.428 6.085,0 0,-10.428 z m 34.017,18.25 c -7.062,0 -12.974,5.026 -14.34,11.688 -1.367,-6.662 -7.277,-11.688 -14.341,-11.688 l -15.713,0 c -3.12,0 -6.141,0.873 -8.749,2.541 l 0,-23.209 c 0,-15.73 13.125,-28.865 28.863,-28.865 l 19.881,0 c 15.737,0 28.631,13.135 28.631,28.865 l 0,23.209 c -2.609,-1.668 -5.4,-2.541 -8.517,-2.541 l -15.715,0 z"
         transform="matrix(1.25,0,0,-1.25,0,1000)" /><path
         inkscape:connector-curvature="0"
         id="path4991"
         style="display:inline;fill:#000000;fill-opacity:1;fill-rule:nonzero;stroke:none"
         d="M 0,0 C 7.063,0 12.974,-5.025 14.341,-11.688 15.707,-5.025 21.618,0 28.681,0 l 15.715,0 c 2.808,0 5.426,-0.777 7.658,-2.154 -2.897,12.662 -14.227,22.142 -27.773,22.142 l -19.881,0 c -13.546,0 -24.876,-9.48 -27.772,-22.142 2.231,1.377 4.849,2.154 7.658,2.154 L 0,0 Z"
         transform="matrix(1.25,0,0,-1.25,599.40312,549.46775)" /><path
         inkscape:connector-curvature="0"
         id="path4995"
         style="display:inline;fill:#000000;fill-opacity:1;fill-rule:nonzero;stroke:none"
         d="m 0,0 c 0,-1.885 -1.529,-3.412 -3.415,-3.412 l -15.774,0 c -1.887,0 -3.415,1.527 -3.415,3.412 l 0,15.768 c 0,1.884 1.528,3.412 3.415,3.412 l 15.774,0 C -1.529,19.18 0,17.652 0,15.768 L 0,0 Z m -44.339,0 c 0,-1.885 -1.528,-3.412 -3.415,-3.412 l -15.774,0 c -1.886,0 -3.415,1.527 -3.415,3.412 l 0,15.768 c 0,1.884 1.529,3.412 3.415,3.412 l 15.774,0 c 1.887,0 3.415,-1.528 3.415,-3.412 l 0,-15.768 z m 41.038,26.133 -15.715,0 c -5.632,0 -10.543,-4.985 -10.543,-10.615 l 0,-3.289 -4.094,0 -3.731,0 0,3.287 c 0,5.632 -4.679,10.617 -10.312,10.617 l -15.714,0 c -5.634,0 -10.488,-4.985 -10.488,-10.617 l 0,-15.707 c 0,-5.631 4.854,-10.174 10.488,-10.174 l 15.714,0 c 5.633,0 10.312,4.543 10.312,10.174 l 0,2.861 3.731,0 4.094,0 0,-2.861 c 0,-5.631 4.911,-10.174 10.543,-10.174 l 15.715,0 c 5.633,0 10.256,4.543 10.256,10.174 l 0,15.709 c 0,5.63 -4.623,10.615 -10.256,10.615"
         transform="matrix(1.25,0,0,-1.25,659.02337,587.5635)" /><path
         inkscape:connector-curvature="0"
         id="path4985"
         style="display:inline;fill:#000000;fill-opacity:1;fill-rule:nonzero;stroke:none"
         d="m 0,0 -20.045,0 c -25.996,0 -47.038,-21.017 -47.038,-47.001 l 0,-41.815 c 0,-3.754 3.198,-6.799 6.955,-6.799 3.757,0 6.955,3.045 6.955,6.799 l 0,41.815 c 0,18.486 14.633,33.097 33.128,33.097 l 20.045,0 c 18.495,0 33.766,-14.611 33.766,-33.097 l 0,-41.815 c 0,-3.754 2.762,-6.799 6.52,-6.799 3.756,0 6.52,3.045 6.52,6.799 l 0,41.815 C 46.806,-21.017 25.997,0 0,0"
         transform="matrix(1.25,0,0,-1.25,629.85712,500.5865)" /></g></g><g
     inkscape:groupmode="layer"
     id="layer12"
     inkscape:label="Faces 10"
     style="display:none"><g
       id="g5326"
       transform="matrix(5.9770917,0,0,5.9770917,-1979.078,-2991.9757)"><path
         inkscape:connector-curvature="0"
         id="path5085"
         style="display:inline;fill:#000000;fill-opacity:1;fill-rule:nonzero;stroke:none"
         d="m 0,0 0,0.018 77.375,0 0,-0.23 c 2.353,1.114 3.991,3.56 3.991,6.312 0,3.755 -3.045,6.953 -6.802,6.953 l -2.2,0 C 71.187,27.99 56.657,39.729 38.899,39.729 21.124,39.729 6.587,28.006 5.431,13.053 l -2.197,0 C -0.523,13.053 -3.568,9.855 -3.568,6.1 -3.568,3.515 -2.125,1.195 0,0"
         transform="matrix(1.25,0,0,-1.25,366.1395,551.49775)" /><path
         inkscape:connector-curvature="0"
         id="path5081"
         style="display:inline;fill:#000000;fill-opacity:1;fill-rule:nonzero;stroke:none"
         d="m 0,0 -15.102,0 c -2.071,0 -3.751,-1.68 -3.751,-3.75 l 0,-15.965 c 0,-2.07 1.68,-3.748 3.751,-3.748 l 15.102,0 c 2.072,0 3.751,1.678 3.751,3.748 l 0,15.965 C 3.751,-1.68 2.072,0 0,0"
         transform="matrix(1.25,0,0,-1.25,450.56213,575.37238)" /><path
         inkscape:connector-curvature="0"
         id="path5077"
         style="display:inline;fill:#000000;fill-opacity:1;fill-rule:nonzero;stroke:none"
         d="m 0,0 -15.103,0 c -2.071,0 -3.75,-1.68 -3.75,-3.75 l 0,-15.965 c 0,-2.07 1.679,-3.748 3.75,-3.748 l 15.103,0 c 2.071,0 3.751,1.678 3.751,3.748 l 0,15.965 C 3.751,-1.68 2.071,0 0,0"
         transform="matrix(1.25,0,0,-1.25,397.31263,575.37238)" /><path
         inkscape:connector-curvature="0"
         id="path5073"
         style="display:inline;fill:#000000;fill-opacity:1;fill-rule:nonzero;stroke:none"
         d="m 0,0 c 0,-4.323 -3.506,-7.828 -7.831,-7.828 l -14.765,0 c -4.326,0 -7.832,3.505 -7.832,7.828 l 0,15.627 c 0,4.324 3.506,7.828 7.832,7.828 l 14.765,0 C -3.506,23.455 0,19.951 0,15.627 L 0,0 Z m -25.746,-22.601 -20.406,0 c -1.88,0 -3.403,1.599 -3.403,3.476 0,1.878 1.523,3.477 3.403,3.477 l 20.406,0 c 1.877,0 3.4,-1.599 3.4,-3.477 0,-1.877 -1.523,-3.476 -3.4,-3.476 m 0,-12.165 -20.406,0 c -1.88,0 -3.403,1.598 -3.403,3.476 0,1.876 1.523,3.476 3.403,3.476 l 20.406,0 c 1.877,0 3.4,-1.6 3.4,-3.476 0,-1.878 -1.523,-3.476 -3.4,-3.476 m -38.58,26.938 c -4.326,0 -7.832,3.505 -7.832,7.828 l 0,15.627 c 0,4.324 3.506,7.828 7.832,7.828 l 14.763,0 c 4.327,0 7.834,-3.504 7.834,-7.828 l 0,-15.627 c 0,-4.323 -3.507,-7.828 -7.834,-7.828 l -14.763,0 z m 62.26,39.104 -68.026,0 c -1.219,-1.876 -2.293,-3.852 -3.187,-5.924 -2.512,-2.301 -4.096,-5.596 -4.096,-9.27 l 0,-15.667 c 0,-6.952 5.639,-12.588 12.594,-12.588 l 4.412,0 c 0.8,-1.79 1.252,-3.74 1.252,-5.762 l 0,-19.948 c 0,-8.424 6.594,-15.132 15.021,-15.132 l 15.078,0 c 8.427,0 15.109,6.708 15.109,15.132 l 0,20.643 c 0,1.773 0.388,3.487 1.078,5.067 l 4.586,0 c 6.954,0 12.593,5.636 12.593,12.588 l 0,8.806 0,0.49 0,6.371 c 0,2.836 -0.951,5.443 -2.534,7.549 -1.017,2.699 -2.327,5.256 -3.88,7.645"
         transform="matrix(1.25,0,0,-1.25,459.59775,600.34787)" /></g></g><g
     inkscape:groupmode="layer"
     id="layer11"
     inkscape:label="Faces 9"
     style="display:none"><g
       id="g5309"
       transform="matrix(5.8977443,0,0,5.8977443,-807.61761,-2945.6133)"><path
         inkscape:connector-curvature="0"
         id="path5181"
         style="display:inline;fill:#000000;fill-opacity:1;fill-rule:nonzero;stroke:none"
         d="m 0,0 c 0,3.421 2.224,6.035 4.77,6.035 l 22.825,0 c 2.58,0 4.572,-2.726 4.572,-6.035 l 0,-4.393 7.824,0 0,4.393 c 0,3.421 1.694,6.035 4.249,6.035 l 22.825,0 c 2.615,0 5.093,-2.672 5.093,-6.035 l 0,-9.378 c 0,-3.249 -2.435,-5.442 -5.093,-5.442 l -22.825,0 c -2.598,0 -4.249,2.139 -4.249,5.442 l 0,1.51 -7.824,0 0,-1.51 c 0,-3.249 -1.904,-5.442 -4.572,-5.442 l -22.825,0 C 2.183,-14.82 0,-12.681 0,-9.378 L 0,0 Z m 51.662,-43.704 c -0.545,0 -1.071,0.076 -1.576,0.208 l -28.278,0 c -0.504,-0.132 -1.032,-0.208 -1.577,-0.208 -3.47,0 -6.286,2.813 -6.286,6.282 0,3.47 2.816,6.284 6.286,6.284 3.471,0 6.287,-2.814 6.287,-6.284 0,-0.293 -0.028,-0.579 -0.067,-0.86 l 18.99,0 c -0.039,0.281 -0.066,0.567 -0.066,0.86 0,3.47 2.815,6.284 6.287,6.284 3.471,0 6.285,-2.814 6.285,-6.284 0,-3.469 -2.814,-6.282 -6.285,-6.282 m -58.617,28.749 c 0,-23.626 19.399,-42.777 43.034,-42.777 23.636,0 43.035,19.151 43.035,42.777 l 0,26.205 -86.069,0 0,-26.205 z"
         transform="matrix(1.25,0,0,-1.25,176.073,589.17113)" /><path
         inkscape:connector-curvature="0"
         id="path5185"
         style="display:inline;fill:#000000;fill-opacity:1;fill-rule:nonzero;stroke:none"
         d="m 0,0 c 1.075,1.277 1.537,3.156 1.253,4.8 -4.293,24.778 -25.67,43.045 -51.399,43.045 -25.73,0 -47.107,-18.364 -51.399,-43.141 -0.286,-1.645 0.171,-3.429 1.247,-4.705 1.075,-1.277 2.662,-2.204 4.333,-2.204 l 91.637,0 c 1.67,0 3.252,0.93 4.328,2.205"
         transform="matrix(1.25,0,0,-1.25,283.69137,566.92137)" /><path
         inkscape:connector-curvature="0"
         id="path5189"
         style="display:inline;fill:#000000;fill-opacity:1;fill-rule:nonzero;stroke:none"
         d="m 0,0 22.825,0 c 0.617,0 1.094,0.591 1.094,1.966 l 0,9.378 c 0,1.484 -0.591,2.559 -1.094,2.559 L 0,13.903 c -0.428,0 -1.293,-1.049 -1.293,-2.559 l 0,-9.378 C -1.293,0.698 -0.587,0 0,0"
         transform="matrix(1.25,0,0,-1.25,182.03487,603.35087)" /><path
         inkscape:connector-curvature="0"
         id="path5193"
         style="display:inline;fill:#000000;fill-opacity:1;fill-rule:nonzero;stroke:none"
         d="m 0,0 22.825,0 c 0.61,0 1.615,0.591 1.615,1.966 l 0,9.378 c 0,1.484 -1.119,2.559 -1.615,2.559 L 0,13.903 c -0.437,0 -0.771,-1.049 -0.771,-2.559 l 0,-9.378 C -0.771,0.698 -0.598,0 0,0"
         transform="matrix(1.25,0,0,-1.25,231.37325,603.35087)" /><path
         inkscape:connector-curvature="0"
         id="path5209"
         style="display:inline;fill:#000000;fill-opacity:1;fill-rule:nonzero;stroke:none"
         d="m 0,0 0,-6.335 c 0,-0.969 0.535,-1.893 1.503,-1.893 l 15.431,0 c 0.967,0 1.323,0.924 1.323,1.893 l 0,6.335 c 0,0.968 -0.356,2.2 -1.323,2.2 L 1.503,2.2 C 0.535,2.2 0,0.968 0,0"
         transform="matrix(1.25,0,0,-1.25,281.48563,580.03175)" /><path
         inkscape:connector-curvature="0"
         id="path5201"
         style="display:inline;fill:#000000;fill-opacity:1;fill-rule:nonzero;stroke:none"
         d="m 0,0 -15.43,0 c -0.967,0 -1.878,-1.18 -1.878,-2.148 l 0,-5.58 c 0,-0.968 0.911,-1.832 1.878,-1.832 l 15.43,0 c 0.968,0 1.819,0.864 1.819,1.832 l 0,5.58 C 1.819,-1.18 0.968,0 0,0"
         transform="matrix(1.25,0,0,-1.25,159.67162,592.489)" /><path
         inkscape:connector-curvature="0"
         id="path5197"
         style="display:inline;fill:#000000;fill-opacity:1;fill-rule:nonzero;stroke:none"
         d="m 0,0 -15.43,0 c -0.967,0 -1.878,-1.232 -1.878,-2.2 l 0,-6.335 c 0,-0.969 0.911,-1.893 1.878,-1.893 l 15.43,0 c 0.968,0 1.819,0.924 1.819,1.893 l 0,6.335 C 1.819,-1.232 0.968,0 0,0"
         transform="matrix(1.25,0,0,-1.25,159.67162,577.2815)" /><path
         inkscape:connector-curvature="0"
         id="path5205"
         style="display:inline;fill:#000000;fill-opacity:1;fill-rule:nonzero;stroke:none"
         d="m 0,0 -15.62,0 c -0.969,0 -1.754,-0.785 -1.754,-1.753 l 0,-6.052 c 0,-0.968 0.785,-1.754 1.754,-1.754 l 15.62,0 c 0.968,0 1.753,0.786 1.753,1.754 l 0,6.052 C 1.753,-0.785 0.968,0 0,0"
         transform="matrix(1.25,0,0,-1.25,159.75462,607.6965)" /><path
         inkscape:connector-curvature="0"
         id="path5213"
         style="display:inline;fill:#000000;fill-opacity:1;fill-rule:nonzero;stroke:none"
         d="m 0,0 -15.431,0 c -0.967,0 -1.503,-1.18 -1.503,-2.148 l 0,-5.58 c 0,-0.968 0.536,-1.832 1.503,-1.832 L 0,-9.56 c 0.968,0 1.323,0.864 1.323,1.832 l 0,5.58 C 1.323,-1.18 0.968,0 0,0"
         transform="matrix(1.25,0,0,-1.25,302.65262,592.489)" /><path
         inkscape:connector-curvature="0"
         id="path5217"
         style="display:inline;fill:#000000;fill-opacity:1;fill-rule:nonzero;stroke:none"
         d="m 0,0 -15.618,0 c -0.969,0 -1.754,-0.785 -1.754,-1.753 l 0,-6.052 c 0,-0.968 0.785,-1.754 1.754,-1.754 l 15.618,0 c 0.969,0 1.754,0.786 1.754,1.754 l 0,6.052 C 1.754,-0.785 0.969,0 0,0"
         transform="matrix(1.25,0,0,-1.25,303.20062,607.6965)" /></g></g><g
     inkscape:groupmode="layer"
     id="layer10"
     inkscape:label="Faces 8"
     style="display:none"><g
       id="g5290"
       transform="matrix(5.8326116,0,0,5.8326116,-4206.9496,-1658.121)"><path
         inkscape:connector-curvature="0"
         id="path5117"
         style="display:inline;fill:#000000;fill-opacity:1;fill-rule:nonzero;stroke:none"
         d="m 0,0 c -7.025,0 -12.741,6.821 -12.741,15.206 0,8.386 5.716,15.206 12.741,15.206 7.023,0 12.739,-6.82 12.739,-15.206 C 12.739,6.821 7.023,0 0,0 m 3.962,-20.676 -3.478,0 -1.738,0 0,9.56 1.738,0 3.478,0 0,-9.56 z m -6.955,6.083 -6.955,0 0,9.56 6.955,0 0,-9.56 z m 0,-12.166 -6.955,0 0,9.56 6.955,0 0,-9.56 z m -8.695,12.166 -6.955,0 0,9.56 6.955,0 0,-9.56 z m 0,-12.166 -6.955,0 0,9.56 6.955,0 0,-9.56 z M -31.707,0 c -7.025,0 -12.74,6.821 -12.74,15.206 0,8.386 5.715,15.206 12.74,15.206 7.024,0 12.74,-6.82 12.74,-15.206 C -18.967,6.821 -24.683,0 -31.707,0 m 10.457,-14.593 -6.955,0 0,9.56 6.955,0 0,-9.56 z m 0,-12.166 -6.955,0 0,9.56 6.955,0 0,-9.56 z m -9.563,6.083 -0.871,0 -4.345,0 0,9.56 4.345,0 0.871,0 0,-9.56 z m 14.958,76.085 c -19.975,0 -36.17,-18.916 -36.17,-42.252 0,-23.335 16.195,-58.385 36.17,-58.385 19.978,0 36.172,35.05 36.172,58.385 0,23.336 -16.194,42.252 -36.172,42.252"
         transform="matrix(1.25,0,0,-1.25,827.04713,376.75413)" /><path
         inkscape:connector-curvature="0"
         id="path5097"
         style="display:inline;fill:#000000;fill-opacity:1;fill-rule:nonzero;stroke:none"
         d="m 0,0 -61.486,0 c -9.338,0 -17.25,-7.917 -17.25,-17.251 l 0,-108.32 c 0,-5.515 4.48,-9.986 9.998,-9.986 5.517,0 9.997,4.471 9.997,9.986 l 0,25.021 c -0.181,0.312 -0.365,0.61 -0.544,0.928 -6.803,12.138 -11.028,27.314 -11.028,39.605 0,25.173 17.751,45.652 39.571,45.652 21.821,0 39.574,-20.479 39.574,-45.652 0,-12.291 -4.227,-27.467 -11.029,-39.605 -0.295,-0.529 -0.601,-1.03 -0.904,-1.542 l 0,-24.407 c 0,-5.515 4.48,-9.986 9.998,-9.986 5.519,0 9.999,4.471 9.999,9.986 l 0,108.32 C 16.896,-7.917 9.338,0 0,0"
         transform="matrix(1.25,0,0,-1.25,845.6555,285.28625)" /><path
         inkscape:connector-curvature="0"
         id="path5109"
         style="display:inline;fill:#000000;fill-opacity:1;fill-rule:nonzero;stroke:none"
         d="m 0,0 c -3.061,0 -5.551,-3.11 -5.551,-6.934 0,-3.822 2.49,-6.933 5.551,-6.933 3.06,0 5.549,3.111 5.549,6.933 C 5.549,-3.11 3.06,0 0,0"
         transform="matrix(1.25,0,0,-1.25,827.04713,349.07962)" /><path
         inkscape:connector-curvature="0"
         id="path5113"
         style="display:inline;fill:#000000;fill-opacity:1;fill-rule:nonzero;stroke:none"
         d="m 0,0 c -3.061,0 -5.551,-3.11 -5.551,-6.934 0,-3.822 2.49,-6.933 5.551,-6.933 3.061,0 5.549,3.111 5.549,6.933 C 5.549,-3.11 3.061,0 0,0"
         transform="matrix(1.25,0,0,-1.25,787.41337,349.07962)" /><path
         inkscape:connector-curvature="0"
         id="path5101"
         style="display:inline;fill:#000000;fill-opacity:1;fill-rule:nonzero;stroke:none"
         d="m 0,0 c -4.186,0 -7.592,4.025 -7.592,8.973 0,4.947 3.406,8.972 7.592,8.972 4.185,0 7.59,-4.025 7.59,-8.972 C 7.59,4.025 4.185,0 0,0 m 0,22.14 c -5.9,0 -10.7,-5.907 -10.7,-13.167 0,-7.26 4.8,-13.165 10.7,-13.165 5.898,0 10.698,5.905 10.698,13.165 0,7.26 -4.8,13.167 -10.698,13.167"
         transform="matrix(1.25,0,0,-1.25,827.04713,368.96237)" /><path
         inkscape:connector-curvature="0"
         id="path5105"
         style="display:inline;fill:#000000;fill-opacity:1;fill-rule:nonzero;stroke:none"
         d="m 0,0 c -4.186,0 -7.59,4.025 -7.59,8.973 0,4.947 3.404,8.972 7.59,8.972 4.186,0 7.59,-4.025 7.59,-8.972 C 7.59,4.025 4.186,0 0,0 m 0,22.14 c -5.9,0 -10.7,-5.907 -10.7,-13.167 0,-7.26 4.8,-13.165 10.7,-13.165 5.899,0 10.699,5.905 10.699,13.165 0,7.26 -4.8,13.167 -10.699,13.167"
         transform="matrix(1.25,0,0,-1.25,787.41337,368.96237)" /></g></g><g
     inkscape:groupmode="layer"
     id="layer9"
     inkscape:label="Faces 7"
     style="display:none"><g
       id="g5277"
       transform="matrix(5.909326,0,0,5.909326,-3147.1407,-1686.5064)"
       inkscape:export-xdpi="22.772276"
       inkscape:export-ydpi="22.772276"><path
         inkscape:connector-curvature="0"
         id="path5057"
         style="display:inline;fill:#000000;fill-opacity:1;fill-rule:nonzero;stroke:none"
         d="m 0,0 c -7.114,0 -12.883,7.22 -12.883,16.126 0,4.262 1.33,8.125 3.487,11.009 2.35,3.143 5.685,5.118 9.396,5.118 3.71,0 7.045,-1.975 9.396,-5.119 2.157,-2.883 3.486,-6.747 3.486,-11.008 C 12.882,7.22 7.114,0 0,0 m 12.21,-12.839 0,-4.346 -7.825,0 0,4.346 0,8.689 7.825,0 0,-8.689 z m -11.302,0 0,-4.346 -7.825,0 0,4.346 0,8.689 7.825,0 0,-8.689 z m -11.303,0 0,-4.346 -8.693,0 0,4.346 0,8.689 8.693,0 0,-8.689 z M -29.249,0 c -7.115,0 -12.884,7.22 -12.884,16.126 0,4.262 1.331,8.126 3.487,11.009 2.351,3.143 5.685,5.118 9.397,5.118 3.709,0 7.044,-1.975 9.395,-5.118 2.157,-2.884 3.486,-6.747 3.486,-11.009 C -16.368,7.22 -22.136,0 -29.249,0 m 7.553,-12.839 0,-4.346 -8.694,0 0,4.346 0,8.689 8.694,0 0,-8.689 z m -12.172,0 0,-4.346 -7.824,0 0,4.346 0,8.689 7.824,0 0,-8.689 z M 45.49,14.618 c -2.814,0 -5.24,-1.631 -6.405,-3.995 l -6.011,0 0,12.225 c 0,2.367 -1.919,4.286 -4.285,4.286 l -4.408,0 0,0.534 c 0,5.464 -4.432,9.894 -9.899,9.894 l -58.448,0 c -5.466,0 -9.898,-4.43 -9.898,-9.894 l 0,-0.532 -3.537,0 c -1.138,0 -2.228,-0.452 -3.032,-1.256 -0.802,-0.803 -1.255,-1.894 -1.255,-3.03 l 0,-12.227 -6.647,0 c -1.163,2.364 -3.591,3.995 -6.405,3.995 -3.945,0 -7.141,-3.197 -7.141,-7.139 0,-3.943 3.196,-7.139 7.141,-7.139 2.543,0 4.769,1.332 6.035,3.331 l 7.017,0 0,-12.227 c 0,-2.365 1.919,-4.283 4.287,-4.283 l 3.554,0 c 0.179,-5.308 4.528,-9.559 9.881,-9.559 l 58.448,0 c 5.354,0 9.704,4.251 9.881,9.559 l 4.425,0 c 2.367,0 4.286,1.918 4.286,4.283 l 0,12.227 6.382,0 C 40.722,1.672 42.948,0.34 45.49,0.34 c 3.946,0 7.143,3.196 7.143,7.139 0,3.942 -3.197,7.139 -7.143,7.139"
         transform="matrix(1.25,0,0,-1.25,635.46388,404.46962)" /><path
         inkscape:connector-curvature="0"
         id="path5069"
         style="display:inline;fill:#000000;fill-opacity:1;fill-rule:nonzero;stroke:none"
         d="m 0,0 0,6.083 0,9.559 -7.824,0 0,-9.559 -4.347,0 0,16.51 -7.825,0 0,-16.51 -5.216,0 0,23.462 -7.824,0 0,-23.462 -5.216,0 0,16.51 -7.824,0 0,-16.51 -4.348,0 0,9.559 -8.694,0 0,-9.559 0,-6.083 0,-4.344 L 0,-4.344 0,0 Z"
         transform="matrix(1.25,0,0,-1.25,655.072,344.483)" /><path
         inkscape:connector-curvature="0"
         id="path5065"
         style="display:inline;fill:#000000;fill-opacity:1;fill-rule:nonzero;stroke:none"
         d="m 0,0 c -2.694,0 -4.879,-2.183 -4.879,-4.876 0,-2.693 2.185,-4.876 4.879,-4.876 2.693,0 4.878,2.183 4.878,4.876 C 4.878,-2.183 2.693,0 0,0"
         transform="matrix(1.25,0,0,-1.25,635.46388,384.89562)" /><path
         inkscape:connector-curvature="0"
         id="path5061"
         style="display:inline;fill:#000000;fill-opacity:1;fill-rule:nonzero;stroke:none"
         d="m 0,0 c -2.695,0 -4.879,-2.183 -4.879,-4.876 0,-2.693 2.184,-4.876 4.879,-4.876 2.694,0 4.878,2.183 4.878,4.876 C 4.878,-2.183 2.694,0 0,0"
         transform="matrix(1.25,0,0,-1.25,598.90262,384.89562)" /></g></g><g
     inkscape:groupmode="layer"
     id="layer8"
     inkscape:label="Faces 6"
     style="display:none"><g
       id="g5267"
       transform="matrix(5.9065359,0,0,5.9065359,-1949.8155,-1685.4722)"><path
         inkscape:connector-curvature="0"
         id="path5145"
         style="display:inline;fill:#000000;fill-opacity:1;fill-rule:nonzero;stroke:none"
         d="m 0,0 c -8.809,0 -15.976,7.163 -15.976,15.969 0,8.803 7.167,15.967 15.976,15.967 8.808,0 15.974,-7.164 15.974,-15.967 C 15.974,7.163 8.808,0 0,0 M -21.729,50.259 8.01,45.415 7.354,41.389 l -29.739,4.844 0.656,4.026 z m -12.217,-87.02 c -6.347,0 -11.492,6.749 -11.492,15.074 0,8.325 5.145,15.073 11.492,15.073 6.347,0 11.492,-6.748 11.492,-15.073 0,-8.325 -5.145,-15.074 -11.492,-15.074 m -11.56,82.994 -29.738,-4.844 -0.656,4.026 29.738,4.844 0,0 0.657,-4.026 -10e-4,0 z M -67.891,0 c -8.808,0 -15.975,7.163 -15.975,15.969 0,8.803 7.167,15.967 15.975,15.967 8.809,0 15.975,-7.164 15.975,-15.967 C -51.916,7.163 -59.082,0 -67.891,0 m 94.465,-5.149 0,6.071 c 0,1.248 -0.449,2.396 -1.549,2.989 -1.099,0.592 -2.199,0.535 -3.244,-0.15 l -6.283,-4.214 c 4.365,4.116 7.094,9.949 7.094,16.422 0,9.76 -6.197,18.074 -14.872,21.227 l 5.118,-0.834 1.969,12.08 L -7.1,52.01 c -7.532,6.983 -16.807,11.113 -26.845,11.113 -10.039,0 -19.314,-4.13 -26.846,-11.113 l -21.905,-3.568 1.968,-12.08 5.116,0.833 c -8.675,-3.153 -14.87,-11.466 -14.87,-21.226 0,-6.293 2.577,-11.982 6.73,-16.077 l -5.824,3.869 c -1.044,0.685 -2.094,0.742 -3.195,0.15 -1.1,-0.593 -1.5,-1.741 -1.5,-2.989 l 0,-6.041 c -3.852,-0.45 -6.842,-3.719 -6.842,-7.689 0,-3.969 2.99,-7.237 6.842,-7.687 l 0,-6.043 c 0,-1.248 0.457,-2.398 1.557,-2.988 1.099,-0.593 2.208,-0.536 3.253,0.149 l 9.97,6.698 0,0.088 5.546,0 c 7.746,-17.942 22.753,-30.109 40,-30.109 17.246,0 32.253,12.167 39.999,30.109 l 5.74,0 0,-0.088 9.922,-6.698 c 1.044,-0.685 2.105,-0.742 3.205,-0.149 1.1,0.59 1.653,1.74 1.653,2.988 l 0,6.073 c 3.757,0.535 6.648,3.754 6.648,7.657 0,3.904 -2.891,7.123 -6.648,7.659"
         transform="matrix(1.25,0,0,-1.25,457.19538,376.5235)" /><path
         inkscape:connector-curvature="0"
         id="path5141"
         style="display:inline;fill:#000000;fill-opacity:1;fill-rule:nonzero;stroke:none"
         d="m 0,0 c -5.808,0 -10.534,-4.724 -10.534,-10.528 0,-5.807 4.726,-10.529 10.534,-10.529 5.808,0 10.533,4.722 10.533,10.529 C 10.533,-4.724 5.808,0 0,0"
         transform="matrix(1.25,0,0,-1.25,457.19538,343.40213)" /><path
         inkscape:connector-curvature="0"
         id="path5137"
         style="display:inline;fill:#000000;fill-opacity:1;fill-rule:nonzero;stroke:none"
         d="m 0,0 c -5.808,0 -10.534,-4.724 -10.534,-10.528 0,-5.807 4.726,-10.529 10.534,-10.529 5.808,0 10.533,4.722 10.533,10.529 C 10.533,-4.724 5.808,0 0,0"
         transform="matrix(1.25,0,0,-1.25,372.33213,343.40213)" /></g></g><g
     inkscape:groupmode="layer"
     id="layer7"
     inkscape:label="Faces 5"
     style="display:none"><g
       id="g5253"
       transform="translate(15.866812,0)"><path
         inkscape:connector-curvature="0"
         id="path5177"
         style="display:inline;fill:#000000;fill-opacity:1;fill-rule:nonzero;stroke:none"
         d="m 624.78835,840.08209 c -20.29097,20.93762 -74.40024,69.66569 -138.36515,69.66569 -63.94257,0 -118.05929,-48.71321 -138.35028,-69.66569 -9.58062,-9.87046 -9.58062,-25.3377 -0.007,-35.20819 12.98475,-13.4084 39.87587,-38.1515 74.29621,-54.25793 l 0,-0.42366 0.95137,0 c 19.10176,-8.80761 40.46303,-14.97668 63.11015,-14.97668 63.96489,0 118.06674,48.71323 138.35771,69.65084 9.56575,9.87792 9.57318,25.34516 0.007,35.21562 M 504.84862,537.01069 c 0,-2.17033 0.23031,-4.29605 0.49053,-6.42177 l -46.29019,0 c 0.26014,2.12572 0.49799,4.25144 0.49799,6.42177 0,42.93064 -53.33629,77.75234 -119.12959,77.75234 -16.80511,0 -32.78519,-2.3041 -47.28617,-6.40689 l 0,195.07583 c 0,105.19349 85.38563,190.46764 190.62372,190.46764 105.23808,0 190.61629,-85.27415 190.61629,-190.46764 l 0,-196.04949 c -15.31858,4.6751 -32.36151,7.38055 -50.39299,7.38055 -65.80073,0 -119.12959,-34.8217 -119.12959,-77.75234" /><path
         inkscape:connector-curvature="0"
         id="path5149"
         style="display:inline;fill:#000000;fill-opacity:1;fill-rule:nonzero;stroke:none"
         d="M 948.45472,453.51449 917.35674,424.8098 C 883.3006,392.98345 838.41519,375.59117 791.79052,375.59117 l -46.57262,0 33.10476,-33.10478 c 32.96356,-32.95611 52.1768,-77.1949 53.75252,-123.76753 l 1.42705,-42.52187 c 0.37908,-11.30497 -3.94671,-22.26804 -11.94417,-30.2655 -7.99746,-7.99004 -18.96798,-12.30839 -30.27295,-11.93675 l -42.53673,1.44193 c -46.59494,1.56828 -90.84859,20.76666 -123.81957,53.72278 l -34.55413,34.53181 0,-47.33076 c 0,-46.28272 -16.44089,-90.841139 -47.86592,-124.800656 L 513.43992,19.592261 C 505.70259,11.238027 495.08141,6.4737347 483.69467,6.4737347 c -11.39415,0 -22.14169,4.7642923 -29.87159,13.1185263 L 425.13326,51.559844 C 393.69342,85.519361 377.13358,130.07778 377.13358,176.3605 l 0,46.9294 -33.66964,-33.65478 C 310.7308,156.90942 266.85619,137.74819 220.59576,135.94209 l -43.53272,-1.69464 c -11.37929,-0.44595 -22.43154,3.87981 -30.48107,11.92931 -8.05689,8.04949 -12.38268,19.10176 -11.9367,30.47364 l 1.69461,43.50296 c 1.7987,46.22329 20.98219,90.08302 53.71534,122.80873 l 32.63651,32.62908 -45.88138,0 c -46.29018,0 -90.878326,17.13957 -124.860129,48.56457 l -31.975007,29.4182 c -8.361663,7.72246 -13.1185387,18.522 -13.1185387,29.90132 0,11.38673 4.7642937,22.22345 13.1259797,29.95334 l 31.967566,27.98373 c 33.981803,31.43243 78.562519,47.30844 124.852679,47.30844 l 48.35647,0 -35.09672,35.08928 c -32.73314,32.7257 -51.91663,76.58544 -53.72277,122.8236 l -1.69461,43.50296 c -0.43854,11.37932 3.88724,22.42415 11.94413,30.48106 8.05696,8.04207 19.10178,12.36784 30.48106,11.9219 l 43.5253,-1.68721 c 14.05502,-0.55744 27.90194,-2.72776 41.27318,-6.38459 -0.66893,-6.91976 -1.048,-13.93613 -1.048,-21.03425 l 0,-208.69978 c -9.09748,-5.35146 -16.91659,-11.57997 -23.15253,-18.50716 -10.34618,-11.52793 -16.38142,-24.89919 -16.38142,-39.22179 0,-42.93808 53.34371,-77.75235 119.12958,-77.75235 4.6528,0 9.21644,0.21556 13.72803,0.55744 38.34473,2.86899 71.0853,17.63756 89.4884,38.48596 l 77.12802,0 c 20.57342,-23.30117 59.0371,-39.0434 103.21643,-39.0434 11.89957,0 23.38294,1.18178 34.22708,3.30008 49.0997,9.6029 84.90251,39.28867 84.90251,74.45227 0,19.88219 -11.53537,37.97312 -30.36214,51.71598 -1.95478,1.4345 -3.94672,2.83181 -6.06498,4.16968 l 0,210.54307 c 0,7.17989 -0.37908,14.27801 -1.06286,21.28694 13.96584,3.88725 28.43708,6.14676 43.15362,6.64475 l 42.52188,1.42706 c 11.30497,0.37163 22.26804,-3.94671 30.27293,-11.94417 7.99746,-7.99748 12.32325,-18.95311 11.94418,-30.25066 L 832.07518,748.083 C 830.51433,701.50295 811.29366,657.26414 778.3301,624.30803 l -35.59467,-35.58726 49.06253,0 c 46.62466,0 91.51008,-16.15101 125.56621,-47.99226 l 31.09055,-28.2587 c 8.26504,-7.72246 12.95498,-18.15038 12.95498,-29.45535 0,-11.31242 -4.68994,-21.77751 -12.95498,-29.49997" /><path
         inkscape:connector-curvature="0"
         id="path5173"
         style="display:inline;fill:#000000;fill-opacity:1;fill-rule:nonzero;stroke:none"
         d="m 422.3624,814.78677 0,-41.63739 c -24.22282,12.91784 -43.90431,30.05742 -55.64039,41.63739 l 55.64039,0 z" /><path
         inkscape:connector-curvature="0"
         id="path5169"
         style="display:inline;fill:#000000;fill-opacity:1;fill-rule:nonzero;stroke:none"
         d="m 441.74957,880.66405 c 14.01789,5.37376 29.05403,8.86708 44.67733,8.86708 13.64625,0 26.86139,-2.65341 39.32585,-6.88257 l 0,-54.94916 -84.00318,0 0,52.96465 z" /><path
         inkscape:connector-curvature="0"
         id="path5161"
         style="display:inline;fill:#000000;fill-opacity:1;fill-rule:nonzero;stroke:none"
         d="m 538.67435,767.38914 0,47.39763 67.45821,0 c -13.58678,-13.41582 -37.80961,-34.30141 -67.45821,-47.39763" /><path
         inkscape:connector-curvature="0"
         id="path5153"
         style="display:inline;fill:#000000;fill-opacity:1;fill-rule:nonzero;stroke:none"
         d="m 441.74957,764.28975 0,50.49702 84.00318,0 0,-52.47409 c -12.46446,-4.22915 -25.6796,-6.87516 -39.32585,-6.87516 -15.6233,0 -30.65944,3.49331 -44.67733,8.85223" /><path
         inkscape:connector-curvature="0"
         id="path5165"
         style="display:inline;fill:#000000;fill-opacity:1;fill-rule:nonzero;stroke:none"
         d="m 422.3624,871.80142 0,-44.105 -58.10799,0 c 11.31981,11.47592 32.04933,30.22092 58.10799,44.105" /><path
         inkscape:connector-curvature="0"
         id="path5157"
         style="display:inline;fill:#000000;fill-opacity:1;fill-rule:nonzero;stroke:none"
         d="m 538.67435,877.57216 c 31.58107,-13.95098 56.94108,-36.70958 69.91839,-49.87271 l -69.91839,0 0,49.87271 z" /></g></g><g
     inkscape:groupmode="layer"
     id="layer6"
     inkscape:label="Faces 4"
     style="display:none"><path
       d="m 660.82507,727.36806 c -5.48904,0 -10.76297,-0.8827 -15.71794,-2.47007 -20.09432,-6.45333 -34.74411,-24.9232 -35.56747,-46.95352 -0.0297,-0.64533 -0.10381,-1.29067 -0.10381,-1.94341 0,-28.36498 23.00945,-51.35217 51.38925,-51.35217 28.36497,0 51.38925,22.98719 51.38925,51.35217 0,28.37238 -23.02428,51.367 -51.38925,51.367 m -160.17603,0 c -27.71222,0 -50.25435,-21.95615 -51.28541,-49.42359 -0.0148,-0.64533 -0.089,-1.29067 -0.089,-1.94341 0,-28.36498 22.9946,-51.35217 51.37441,-51.35217 28.37981,0 51.38925,22.98719 51.38925,51.35217 0,0.65274 -0.0741,1.29808 -0.10381,1.94341 -1.02363,27.46744 -23.55094,49.42359 -51.28541,49.42359 m -139.29543,-4.45799 c -6.37174,2.84095 -13.43331,4.45799 -20.86576,4.45799 -28.37981,0 -51.39667,-22.99462 -51.39667,-51.367 0,-28.36498 23.01686,-51.35217 51.39667,-51.35217 28.38722,0 51.38925,22.98719 51.38925,51.35217 0,0.65274 -0.089,1.29808 -0.0964,1.94341 -0.7566,20.10174 -13.0105,37.21419 -30.42707,44.9656 M 290.41893,423.48311 c 0,-37.45897 30.38256,-67.81928 67.84895,-67.81928 l 283.46424,0 c 37.48122,0 67.85636,30.36031 67.85636,67.81928 l 0,57.72389 c 0,37.45897 -30.37514,67.8267 -67.85636,67.8267 l -283.46424,0 c -37.46639,0 -67.84895,-30.36773 -67.84895,-67.8267 l 0,-57.72389 z m 414.97118,-158.06201 -2.24753,0 -407.22719,0 c -43.20763,0 -76.43855,34.0172 -76.43855,77.20256 l 0,339.90489 c 0,43.18538 33.23092,79.22016 76.43855,79.22016 l 65.43821,0 0,27.50453 c 0,1.6022 0.13352,3.15248 0.20028,4.71759 2.15853,40.7969 31.84383,70.91243 73.45666,70.91243 l 128.4583,0 c 41.60542,0 78.66383,-30.11553 81.36384,-70.91243 0.11126,-1.56511 0.27445,-3.11539 0.27445,-4.71759 l 0,-27.50453 60.28298,0 c 43.2002,0 75.13305,-36.03478 75.13305,-79.22016 l 0,-339.90489 c 0,-43.18536 -31.93285,-77.20256 -75.13305,-77.20256"
       style="display:inline;fill:#000000;fill-opacity:1;fill-rule:nonzero;stroke:none"
       id="path5221"
       inkscape:connector-curvature="0" /><path
       d="m 401.33086,423.19531 c 17.98031,0 32.57076,14.57561 32.57076,32.55592 0,17.97289 -14.59045,32.54108 -32.57076,32.54108 -17.99514,0 -32.57076,-14.56819 -32.57076,-32.54108 0,-17.98031 14.57562,-32.55592 32.57076,-32.55592 m 192.20529,0 c 17.98031,0 32.55593,14.57561 32.55593,32.55592 0,17.97289 -14.57562,32.54108 -32.55593,32.54108 -17.99513,0 -32.57817,-14.56819 -32.57817,-32.54108 0,-17.98031 14.58304,-32.55592 32.57817,-32.55592 m -236.51072,93.61033 285.95656,0 c 20.76191,0 37.58506,-16.81575 37.58506,-37.57023 l 0,-53.77031 c 0,-20.7545 -16.82315,-37.57766 -37.58506,-37.57766 l -285.95657,0 c -20.75449,0 -37.59248,16.82316 -37.59248,37.57766 l 0,53.77031 c 0,20.75448 16.83799,37.57023 37.59248,37.57023"
       style="display:inline;fill:#000000;fill-opacity:1;fill-rule:nonzero;stroke:none"
       id="path5229"
       inkscape:connector-curvature="0" /><path
       d="m 937.79148,240.76791 c -30.76828,0 -55.7063,24.9306 -55.7063,55.67663 0,22.63116 13.52231,42.05048 32.90455,50.76618 l 0,108.90545 c 0,15.76244 -15.2432,28.45398 -31.00564,28.45398 l -7.69207,0 0,-77.22481 c 0,-17.14212 -10.15472,-32.34823 -27.31167,-32.34823 l -4.94013,0 0,-155.22106 c 0,-54.34146 -40.66338,-96.16199 -92.87598,-96.16199 l -500.44439,0 c -53.57746,0 -96.68865,41.82053 -96.68865,96.16199 l 0,155.22106 -1.12748,0 c -17.15695,0 -31.10949,13.4704 -31.10949,30.61251 l 0,78.96053 -5.79315,0 c -15.7476,0 -26.451233,-12.68412 -26.451233,-28.43914 l 0,-111.21234 c 16.919593,-9.54647 28.350133,-27.65287 28.350133,-48.47413 0,-30.74603 -24.938022,-55.67663 -55.706298,-55.67663 -30.753444,0 -55.6914725,24.9306 -55.6914725,55.67663 0,22.05258 12.8547305,41.05652 31.4506965,50.07634 l 0,109.61013 c 0,43.55625 34.484502,80.01384 78.048174,80.01384 l 5.79315,0 0,77.22481 c 0,17.14954 13.95254,32.35564 31.10949,32.35564 l 33.37928,0 0,-212.71501 0,-58.01318 0,-32.3779 0,-122.84316 c 0,-37.01391 28.17212,-70.37835 64.43685,-70.37835 l 500.44439,0 c 35.50812,0 67.09234,32.7191 67.09234,70.37835 l 0,155.22106 -6.44591,0 0,270.72819 37.16968,0 c 17.15695,0 27.31167,-13.00308 27.31167,-30.13778 l 0,-79.44267 7.69207,0 c 43.57849,0 76.14925,-36.46501 76.14925,-80.02868 l 0,-108.68292 c 19.62702,-8.60444 33.36445,-28.17953 33.36445,-50.98871 0,-30.74603 -24.93802,-55.67663 -55.70631,-55.67663"
       style="display:inline;fill:#000000;fill-opacity:1;fill-rule:nonzero;stroke:none"
       id="path5225"
       inkscape:connector-curvature="0" /></g><g
     inkscape:groupmode="layer"
     id="layer5"
     inkscape:label="Faces 3"
     style="display:none"><path
       d="m 828.00703,319.16717 c -21.67804,37.68362 -58.23897,85.87757 -109.32088,101.49907 -12.2904,3.76687 -25.6887,5.68727 -39.83297,5.68727 l -0.008,0 c -40.56416,0 -80.8772,-15.54026 -107.54083,-28.55449 -7.50423,-3.67822 -13.20629,-10.32566 -15.64366,-18.25829 -2.43742,-7.96218 -1.45505,-16.66293 2.68852,-23.86432 6.28554,-10.92397 13.85622,-22.72687 22.63083,-34.37467 l -161.96863,0 c 8.75986,11.62564 16.33793,23.42116 22.60871,34.33035 4.14357,7.18662 5.1333,15.8874 2.69589,23.84214 -2.44478,7.98434 -8.11725,14.64657 -15.56977,18.29528 -26.68583,13.02899 -67.01362,28.584 -107.59997,28.584 -14.13687,0 -27.54996,-1.90561 -39.84033,-5.68727 -51.07455,-15.6215 -87.63548,-63.81545 -109.30613,-101.49907 -4.15096,-7.20139 -5.1333,-15.89477 -2.69592,-23.84955 2.44477,-7.93261 8.13944,-14.59483 15.65106,-18.25831 26.67099,-13.02899 66.98407,-28.56185 107.54083,-28.56185 14.14431,0 27.54996,1.91299 39.83297,5.67249 18.93781,5.79066 35.86666,16.07943 50.79385,28.62832 l 233.74625,0 c 14.92723,-12.54889 31.86343,-22.83766 50.79385,-28.62832 12.28301,-3.7595 25.69606,-5.67249 39.84037,-5.67249 40.56415,0 80.87723,15.53286 107.55562,28.56185 7.49683,3.66348 13.19149,10.3257 15.62151,18.25093 2.43737,7.96216 1.47719,16.65554 -2.67378,23.85693 M 500.00741,804.86628 c -103.96602,0 -188.23341,-84.27479 -188.23341,-188.22601 0,-4.88959 2.96919,-9.29167 7.48943,-11.12342 4.52767,-1.83911 9.72003,-0.75337 13.11763,2.75502 37.63191,38.6807 98.67761,63.83759 167.62635,63.83759 68.93398,0 129.97968,-25.15689 167.60419,-63.83759 3.405,-3.50839 8.5974,-4.59413 13.12503,-2.75502 4.52764,1.83175 7.48207,6.23383 7.48207,11.12342 0,103.95122 -84.26003,188.22601 -188.21129,188.22601 M 878.71963,280.57507 c -6.5071,-21.1758 -21.67064,-38.90231 -41.60558,-48.63712 -18.90831,-9.23995 -43.82884,-19.50656 -71.58561,-26.25002 l 0,-63.72682 c 0,-75.795625 -64.4802,-135.1499061 -140.3275,-135.1499061 l -254.36074,0 c -75.83994,0 -138.27419,59.3542811 -138.27419,135.1499061 l 0,64.19214 c -26.98864,6.74346 -51.20746,16.76633 -69.6726,25.77731 -19.94234,9.7422 -35.11328,27.46871 -41.62038,48.6519 -6.4997,21.21273 -3.89242,44.39753 7.17186,63.6308 21.44908,37.29217 55.72034,83.29984 104.12112,109.95608 l 0,216.46293 c 0,49.66377 17.47537,97.85774 48.49678,136.67143 l 109.87485,136.66403 c 26.06537,32.57986 65.72108,51.55462 107.45222,51.55462 41.73858,0 81.57891,-18.97476 107.64427,-51.55462 L 716.09363,807.3037 c 31.03617,-38.81369 49.43481,-87.00766 49.43481,-136.67143 l 0,-215.4732 c 49.39791,-26.48634 84.29698,-73.17357 106.02673,-110.94581 11.07168,-19.23327 13.67159,-42.41807 7.16446,-63.63819"
       style="display:inline;fill:#000000;fill-opacity:1;fill-rule:nonzero;stroke:none"
       id="path5133"
       inkscape:connector-curvature="0"
       inkscape:export-xdpi="22.772276"
       inkscape:export-ydpi="22.772276" /></g><g
     inkscape:groupmode="layer"
     id="layer4"
     inkscape:label="Faces 2"
     style="display:none"><path
       d="m 419.01406,312.4596 c 29.5498,0 53.50418,23.94682 53.50418,53.48149 0,29.53467 -23.95438,53.4815 -53.50418,53.4815 -29.54979,0 -53.50418,-23.94683 -53.50418,-53.4815 0,-29.53467 23.95439,-53.48149 53.50418,-53.48149 m 161.96433,0 c 29.54979,0 53.51174,23.94682 53.51174,53.48149 0,29.53467 -23.96195,53.4815 -53.51174,53.4815 -29.5498,0 -53.50419,-23.94683 -53.50419,-53.4815 0,-29.53467 23.95439,-53.48149 53.50419,-53.48149 M 327.09818,560.7822 c 0,-28.3929 23.02434,-52.55901 51.43236,-52.55901 l 242.93136,0 c 28.40803,0 51.43993,24.16611 51.43993,52.55901 0,28.40048 -23.0319,52.56658 -51.43993,52.56658 l -242.93136,0 c -28.40802,0 -51.43236,-24.1661 -51.43236,-52.56658 m 370.04536,-109.60946 0,-127.15939 c 0,-110.16144 -87.001,-199.46866 -197.21538,-199.46866 -110.21437,0 -197.20782,89.30722 -197.20782,199.46866 l 0,127.20475 c -63.58347,21.61037 -109.29189,81.3073 -109.29189,152.27067 0,65.98042 39.50811,122.20669 96.1427,147.16674 l 0,189.21546 c 0,30.27569 25.58007,54.83498 55.87845,54.83498 30.29836,0 55.87844,-24.55929 55.87844,-54.83498 l 0,-175.40086 46.01088,0 0,175.40086 c 0,30.27569 22.29088,54.83498 52.58924,54.83498 30.30594,0 52.59683,-24.55929 52.59683,-54.83498 l 0,-175.40086 46.01086,0 0,175.40086 c 0,30.27569 25.58009,54.83498 55.87846,54.83498 30.30593,0 55.87844,-24.55929 55.87844,-54.83498 l 0,-189.16253 c 56.70263,-24.92224 96.2788,-81.18632 96.2788,-147.21967 0,-71.00873 -45.77647,-130.74347 -109.42801,-152.31603"
       style="display:inline;fill:#000000;fill-opacity:1;fill-rule:nonzero;stroke:none"
       id="path5003"
       inkscape:connector-curvature="0" /><path
       d="m 877.13793,416.22946 -61.59484,0 0,-95.40924 C 815.54309,148.12633 672.7695,7.6287123 500,7.6287123 327.23049,7.6287123 184.46447,148.12633 184.46447,320.82022 l 0,95.40924 -61.47386,0 c -30.237875,0 -56.853861,27.18308 -56.853861,57.4134 l 0,132.16501 c 0,30.23031 26.615986,53.53442 56.853861,53.53442 l 47.90121,0 c -5.34588,-17.71626 -8.257,-36.46087 -8.257,-55.8482 0,-72.952 40.76329,-137.07233 100.70975,-170.12303 l 0,-17.1416 0,-95.40924 C 263.34457,190.65142 369.7707,84.747018 500,84.747018 c 130.22929,0 236.64787,105.904402 236.64787,236.073202 l 0,95.40924 0,17.06598 c 60.02207,33.02802 100.84585,97.19372 100.84585,170.19865 0,19.38733 -2.90356,38.13194 -8.257,55.8482 l 47.90121,0 c 30.23788,0 56.72532,-23.30411 56.72532,-53.53442 l 0,-132.16501 c 0,-30.23032 -26.48744,-57.4134 -56.72532,-57.4134"
       style="display:inline;fill:#000000;fill-opacity:1;fill-rule:nonzero;stroke:none"
       id="path4999"
       inkscape:connector-curvature="0" /></g><g
     inkscape:groupmode="layer"
     id="layer3"
     inkscape:label="Faces 1"
     style="display:none"><path
       d="m 640.70908,605.55286 c -66.6898,0 -120.9327,-51.14968 -120.9327,-114.00877 0,-62.85911 54.2429,-113.9941 120.9327,-113.9941 66.68981,0 120.9249,51.13499 120.9249,113.9941 0,62.85909 -54.23509,114.00877 -120.9249,114.00877 m 18.98969,136.14941 c -3.76989,10.40917 -8.70037,20.17925 -14.46425,29.39104 l -78.07738,0 0,-63.82875 67.8192,0 c 8.41217,0 16.34921,4.77485 21.24072,11.23192 4.89933,6.44972 6.19231,15.70559 3.48171,23.20579 m -92.54163,94.35842 0,-45.81655 63.97142,0 c -17.1359,19.92951 -39.07765,35.6498 -63.97142,45.81655 m -20.32162,-64.96738 -88.03178,0 0,-63.82875 88.03178,0 0,63.82875 z m 0,71.81379 c -14.97833,4.06964 -30.68105,6.33953 -46.83552,6.33953 -14.12932,0 -27.92372,-1.71895 -41.19626,-4.88504 l 0,-54.11745 88.03178,0 0,52.66296 z M 361.79899,605.55286 c -66.66642,0 -120.92491,-51.14968 -120.92491,-114.00877 0,-62.85911 54.25849,-113.9941 120.92491,-113.9941 66.69758,0 120.94049,51.13499 120.94049,113.9941 0,62.85909 -54.24291,114.00877 -120.94049,114.00877 m 69.92225,165.54045 -76.74546,0 c -5.86514,-9.31463 -10.86571,-19.22428 -14.68234,-29.75834 -2.71058,-7.50019 -1.40202,-16.32266 3.48171,-22.78707 4.89931,-6.44238 12.82855,-11.28334 21.24851,-11.28334 l 66.69758,0 0,63.82875 z m 0,64.38705 c -24.3096,-10.19614 -45.76064,-25.6887 -62.59275,-45.23622 l 62.59275,0 0,45.23622 z m 516.17995,-402.71105 -123.54981,0 c -4.40861,-25.96784 -11.48105,-50.17267 -21.09274,-72.43817 l 107.1461,-58.31932 c 21.54448,-11.73144 28.9207,-37.69194 16.48939,-57.99608 C 914.45502,223.70426 886.88961,216.755 865.37626,228.4791 l -107.80038,58.66458 c -16.98789,-19.72382 -36.52282,-36.94267 -58.16857,-51.45822 l 63.54302,-103.75387 c 12.4391,-20.2968 5.06288,-46.26465 -16.48162,-57.98874 -21.5445,-11.71676 -49.07097,-4.767508 -61.51008,15.521943 L 619.03996,197.07527 c -22.94651,-7.41938 -47.10814,-12.62764 -72.20444,-15.49991 l 0,-127.444475 c 0,-23.448205 -22.51812,-42.452114 -47.40413,-42.452114 -24.86262,0 -47.39632,19.003909 -47.39632,42.452114 l 0,127.562005 c -24.70685,2.88696 -48.47901,8.07318 -71.08282,15.38238 L 315.04916,89.479475 C 302.61006,69.160646 275.05241,62.218747 253.5235,73.94285 c -21.54451,11.72409 -28.92073,37.68459 -16.47383,57.98874 l 63.54301,103.75387 c -21.66133,14.52289 -41.18846,31.7344 -58.16078,51.45822 L 134.62374,228.4791 c -21.53671,-11.71675 -49.070986,-4.7675 -61.510087,15.53664 -12.439098,20.30414 -5.062876,46.26464 16.473823,57.99608 l 107.146094,58.31932 c -9.59609,22.2655 -16.68413,46.48503 -21.08494,72.43817 l -123.549815,0 c -24.87821,0 -45.04404,18.0563 -45.04404,41.49715 0,23.44085 20.16583,41.4898 45.04404,41.4898 l 118.837445,0 c 1.28519,27.04035 5.03172,55.57193 10.97476,84.70587 l -92.323544,50.24614 c -21.536699,11.73145 -28.912921,37.68461 -16.473823,58.00343 8.334272,13.612 23.468397,21.22974 39.038687,21.22974 7.64885,0 15.38336,-1.82914 22.4714,-5.69309 l 70.49085,-38.36779 C 259.20949,845.48552 370.91996,996.94384 500,996.94384 c 129.06445,0 240.79828,-151.45832 294.87763,-311.06328 l 70.49863,38.36779 c 7.09582,3.86395 14.83033,5.69309 22.4714,5.69309 15.57029,0 30.69663,-7.61774 39.04647,-21.22974 12.43131,-20.31882 5.05508,-46.27198 -16.48162,-58.00343 l -92.32353,-50.23879 c 5.94303,-29.14129 9.69735,-57.67287 10.96697,-84.71322 l 118.84523,0 c 24.8782,0 45.04404,-18.04895 45.04404,-41.4898 0,-23.44085 -20.16584,-41.49715 -45.04404,-41.49715"
       style="display:inline;fill:#000000;fill-opacity:1;fill-rule:nonzero;stroke:none"
       id="path5121"
       inkscape:connector-curvature="0"
       inkscape:export-xdpi="145.62231"
       inkscape:export-ydpi="145.62231" /><path
       d="m 390.3559,532.19348 c -26.01542,0 -47.12372,-19.89275 -47.12372,-44.42081 0,-24.52804 21.1083,-44.41346 47.12372,-44.41346 26.0232,0 47.11592,19.88542 47.11592,44.41346 0,24.52806 -21.09272,44.42081 -47.11592,44.42081 M 361.50528,398.75474 c -52.06977,0 -94.43438,39.93245 -94.43438,89.01793 0,49.08548 42.36461,89.02528 94.43438,89.02528 52.07754,0 94.44215,-39.9398 94.44215,-89.02528 0,-49.08548 -42.36461,-89.01793 -94.44215,-89.01793"
       style="display:inline;fill:#000000;fill-opacity:1;fill-rule:nonzero;stroke:none"
       id="path5129"
       inkscape:connector-curvature="0"
       inkscape:export-xdpi="145.62231"
       inkscape:export-ydpi="145.62231" /><path
       d="m 611.56007,532.19348 c -26.0232,0 -47.11593,-19.89275 -47.11593,-44.42081 0,-24.52804 21.09273,-44.41346 47.11593,-44.41346 26.03099,0 47.12372,19.88542 47.12372,44.41346 0,24.52806 -21.09273,44.42081 -47.12372,44.42081 m 28.85061,-133.43874 c -52.06975,0 -94.44215,39.93245 -94.44215,89.01793 0,49.08548 42.3724,89.02528 94.44215,89.02528 52.07756,0 94.44217,-39.9398 94.44217,-89.02528 0,-49.08548 -42.36461,-89.01793 -94.44217,-89.01793"
       style="display:inline;fill:#000000;fill-opacity:1;fill-rule:nonzero;stroke:none"
       id="path5125"
       inkscape:connector-curvature="0"
       inkscape:export-xdpi="145.62231"
       inkscape:export-ydpi="145.62231" /></g></svg>